<svg width="270" height="270" viewBox="0 15 270 270" version="1.1" xmlns="http://www.w3.org/2000/svg" xmlns:xlink="http://www.w3.org/1999/xlink">
<path id="path12" d="m 77.689831,284.82382 c -1.781648,-0.795 -3.010343,-6.0854 -3.010343,-12.96165 0,-5.1265 0.788468,-7.99583 3.300547,-12.0111 2.938175,-4.69634 5.787331,-12.18284 8.568693,-22.51519 1.482934,-5.50888 3.307784,-11.28658 4.055228,-12.83933 1.551868,-3.22389 2.68134,-12.95797 2.708461,-23.34232 0.0098,-3.75318 1.134388,-17.11955 2.49907,-29.70305 2.358072,-21.74331 2.459358,-23.6506 2.040271,-38.42135 -0.453635,-15.98827 0.03395,-23.04457 2.101703,-30.4139 l 1.100009,-3.920411 8.05415,-3.20313 c 7.45465,-2.964712 9.211,-3.361329 23.59643,-5.328452 20.85341,-2.851581 29.9157,-3.271999 37.00854,-1.716926 6.5509,1.436251 13.07619,4.389708 15.60294,7.062158 2.58189,2.73077 3.70088,11.997211 2.6439,21.894391 -1.35357,12.67438 -6.47349,31.30435 -9.34297,33.99648 -2.23838,2.10005 -2.6349,4.02789 -1.3425,6.52713 0.61748,1.19406 1.02206,2.26016 0.89906,2.36911 -0.123,0.10895 -1.83713,1.00849 -3.80919,1.99899 -6.00629,3.01673 -12.96003,4.47826 -26.80826,5.6345 -11.69667,0.97663 -26.69685,2.79684 -26.89706,3.26387 -0.041,0.0956 -1.54393,4.6924 -3.33987,10.21509 -2.57549,7.91991 -3.26534,11.02365 -3.26534,14.69139 0,4.20756 -0.33171,5.31114 -3.48525,11.59529 -3.28984,6.55577 -3.5228,7.3781 -4.15502,14.66629 -0.36838,4.24661 -1.16201,9.21469 -1.76363,11.04016 -0.88079,2.67262 -0.93527,3.70186 -0.27968,5.28459 0.69441,1.67646 0.56415,2.58443 -0.88565,6.1738 -0.9349,2.31456 -2.9596,6.30883 -4.49934,8.87618 -1.844678,3.07578 -3.0647,6.15981 -3.576953,9.04202 -1.363854,7.67383 -3.358032,10.93627 -10.878608,17.79727 -4.600649,4.19715 -5.584282,4.80812 -6.839338,4.2481 z M 128.7771,156.60434 c 9.56625,-1.12252 12.41237,-2.06329 20.85078,-3.2153 7.06802,-0.96385 8.76273,-1.44663 11.50324,-3.277 l 3.21402,-2.14662 0.12851,-5.2228 c 0.0707,-2.87254 0.13349,-5.92703 0.13954,-6.78776 0.007,-0.86075 -0.46222,-2.28725 -1.04063,-3.17001 -1.17136,-1.78772 0.0115,-1.7575 -17.74391,-0.45329 -5.12895,0.37674 -11.03502,1.15056 -13.1246,1.71958 -2.08957,0.56904 -4.95027,1.03829 -6.3571,1.04279 -2.80382,0.009 -5.83497,1.13946 -6.29248,2.34677 -0.16047,0.42344 -0.84066,3.8267 -1.51154,7.56279 -2.18412,12.16331 -0.45014,12.92465 10.23417,11.60085 z m 6.59337,-36.35373 c 9.08953,-1.32972 19.16321,-2.41769 22.38595,-2.41769 9.08662,0 9.91269,-0.29309 10.80413,-3.83338 1.22405,-4.86114 0.96987,-9.57272 -0.59272,-10.98685 -1.74539,-1.57955 -11.86242,-1.88846 -17.30379,-0.52835 -2.14035,0.535 -9.98232,1.16194 -17.95999,1.43585 -12.04767,0.41365 -14.57306,0.68911 -16.92382,1.84602 -1.7717,0.8719 -2.84048,1.90372 -2.9788,2.87575 -0.17938,1.26057 5.11734,14.02634 5.81974,14.02634 0.12259,0 7.65978,-1.08796 16.7493,-2.41769 z m 8.7004,137.25967 -4.17546,-3.94134 -2.98514,-17.18642 -2.98514,-17.18641 0.49304,-11.83472 c 0.46096,-11.06471 0.59886,-11.95774 2.1194,-13.72547 0.8945,-1.03992 1.8815,-1.89076 2.19332,-1.89076 0.31184,0 3.00707,0.93959 5.9894,2.08798 l 5.42243,2.088 7.68643,-1.35977 c 5.99026,-1.05971 11.57339,-1.40613 25.301,-1.56991 17.49784,-0.20876 17.62955,-0.19949 19.87002,1.39854 3.81224,2.71909 4.63261,5.05892 4.64303,13.24283 0.005,3.98919 -0.37744,12.2266 -0.85004,18.30536 -1.28147,16.4825 -2.39898,19.12227 -10.4974,24.79699 -3.03753,2.12845 -5.85904,3.86991 -6.27004,3.86991 -0.41098,0 -1.63605,-0.45961 -2.72234,-1.02136 -1.84409,-0.95362 -2.27606,-0.88489 -6.51283,1.03616 -3.78189,1.71479 -5.432,2.05827 -9.90637,2.06206 -4.27614,0.004 -5.79032,0.29312 -7.44094,1.42259 -10.56762,2.70395 -10.54629,2.62017 -14.69474,3.37765 -0.27619,-0.0168 -2.38112,-1.80419 -4.67763,-3.97191 z m 38.20468,-20.57821 c 2.87855,0.38808 3.12592,0.32519 2.05579,-0.52273 -1.04947,-0.83154 -1.07962,-1.0775 -0.21951,-1.79132 0.99012,-0.82173 3.30747,-9.76705 4.1872,-16.16326 0.6312,-4.58919 -0.13979,-8.41341 -2.18659,-10.8459 -1.61216,-1.91594 -2.04011,-2.04834 -6.62122,-2.04834 -3.16052,0 -6.57668,0.54077 -9.63148,1.52464 -3.87882,1.24926 -5.10163,1.38579 -6.77031,0.75593 -1.80762,-0.6823 -2.35494,-0.53801 -4.86979,1.28373 -2.09636,1.51859 -2.70476,2.35506 -2.33914,3.21598 1.70273,8.34473 1.33656,6.09977 2.69618,15.11667 1.71233,11.40046 2.54579,12.4308 9.42589,11.65241 6.98635,-0.41949 7.08706,-0.38048 14.27298,-2.17781 z M 46.812338,96.986189 c 0.220489,-2.02155 0.830149,-4.364016 1.354802,-5.205471 0.524653,-0.841465 0.953915,-2.308251 0.953915,-3.259551 0,-2.502389 10.130432,-13.401509 16.923829,-18.207985 3.039376,-2.150431 14.385257,-10.718269 25.213045,-19.03964 10.827801,-8.321371 22.680631,-17.253291 26.339611,-19.84871 3.659,-2.59542 9.0988,-7.352769 12.08845,-10.571889 l 5.43574,-5.852945 5.27395,0.940924 c 5.17647,0.923532 5.46375,1.08654 15.5423,8.81925 9.34388,7.16904 23.48549,16.208816 32.51328,20.78354 1.93742,0.981769 4.09724,2.503704 4.79958,3.382079 0.70266,0.878764 1.82619,1.486575 2.49807,1.351425 0.72034,-0.144895 2.70323,1.087225 4.83538,3.004587 4.79119,4.308544 8.56734,6.66066 20.53813,12.792954 5.50888,2.822041 13.28002,7.47194 17.26921,10.333097 3.9892,2.861166 8.44587,5.934102 9.90375,6.828753 4.19459,2.574092 5.29316,4.110022 5.29316,7.400451 0,1.615592 -0.23313,3.073321 -0.51808,3.239401 -0.28494,0.16607 -4.71449,-0.0895 -9.84345,-0.56784 -10.51865,-0.981091 -16.78859,-3.137911 -22.74095,-7.822749 -1.77268,-1.395217 -6.55231,-4.53935 -10.62137,-6.986955 -4.06905,-2.447604 -10.117,-6.893186 -13.43988,-9.87906 -5.92565,-5.324682 -8.02834,-6.803177 -10.95856,-7.705454 -1.27961,-0.39402 -1.5181,-0.106726 -1.90143,2.29054 -0.24108,1.507588 -0.72431,2.917816 -1.07383,3.13384 -2.05497,1.270038 -8.537,1.69267 -16.86556,1.099646 -7.62228,-0.542733 -9.34147,-0.482999 -10.64823,0.369985 -2.91962,1.905778 -53.76518,3.990529 -59.839218,2.45351 -3.315582,-0.839003 -5.293052,-0.157647 -8.838366,3.045324 -5.663204,3.034489 -5.547894,3.031197 -11.498347,8.572515 -3.296325,2.243206 -9.032865,6.87731 -12.747868,10.297992 -6.411892,5.903916 -8.250835,7.005366 -13.423686,8.040207 l -2.218252,0.44378 z M 119.45234,58.461978 c 4.03821,-0.906374 12.43329,-1.719777 25.68776,-2.488897 l 19.68911,-1.142504 3.38182,1.798129 c 3.47198,1.846059 7.57824,2.367116 8.38372,1.063832 0.70468,-1.140183 -1.64349,-3.288033 -6.93049,-6.339269 -2.66171,-1.536131 -7.48166,-4.734988 -10.71101,-7.108574 -3.3955,-2.49571 -8.61008,-5.477086 -12.3656,-7.069873 l -6.49407,-2.754263 -3.86745,2.931027 c -2.12711,1.612065 -7.59762,5.030338 -12.15668,7.596162 -4.55907,2.565823 -10.37976,6.237111 -12.93486,8.158415 -3.81708,2.870248 -4.49896,3.670023 -3.82321,4.484248 2.04793,2.46761 4.30738,2.62981 12.14096,0.871567 z" style="fill:#fffcf9;stroke-width:0.69076854"/>
</svg>