<?xml version="1.0" encoding="utf-8"?>
<!-- Generator: Adobe Illustrator 17.0.0, SVG Export Plug-In . SVG Version: 6.00 Build 0)  -->
<!DOCTYPE svg PUBLIC "-//W3C//DTD SVG 1.1//EN" "http://www.w3.org/Graphics/SVG/1.1/DTD/svg11.dtd">
<svg version="1.1" id="Layer_1" xmlns="http://www.w3.org/2000/svg" xmlns:xlink="http://www.w3.org/1999/xlink" x="0px" y="0px"
	 width="512px" height="512px" viewBox="0 0 512 512" enable-background="new 0 0 512 512" xml:space="preserve">
<path fill="#444444" d="M203.653,276.468l-30.006,13.137c-23.294-60.39,18.478-121.338,81.459-124.762v32.684
	C216.675,200.119,190.355,236.617,203.653,276.468z M282.933,309.295l11.84,30.503c22.917-9.922,41.025-29.269,49.491-52.776
	h-36.094C302.064,296.776,293.24,304.569,282.933,309.295z M255.106,347.198v-32.685c-13.153-0.769-25.515-5.913-35.409-14.737
	l-23.17,23.173C212.599,337.874,233.167,346.388,255.106,347.198z M294.766,172.256l-11.834,30.487
	c10.308,4.728,19.133,12.521,25.238,22.274h36.216C335.782,201.622,317.63,182.283,294.766,172.256z M512,225.017
	c-4.838-34.358-17.274-71.837-35.181-101.196l-31.666,19.716c14.533,24.256,24.133,54.32,28.567,81.48H512z M512,287.023h-38.284
	c-27.452,162.156-230.285,258.022-369.42,127.654L77.92,441.056C242.721,591.777,481.534,484.416,512,287.023z M54.513,342.19
	c-10.773-25.618-16.656-53.736-17.105-81.749H0c0.457,33.141,7.47,66.464,20.374,96.803L54.513,342.19z M254.034,92.245V57.732
	c-80.058,3.211-144.289,46.29-176.342,120.715l32.045,12.503C135.16,130.71,189.068,94.749,254.034,92.245z M414.709,225.017h35.05
	c-11.477-65.156-57.135-127.325-118.703-152.632l-12.502,32.049C357.12,120.051,401.109,164.859,414.709,225.017z M360.845,287.023
	c-19.742,63.141-95.434,98.406-157.417,62.645c-71.924-41.496-71.924-145.801,0-187.297c61.983-35.761,137.675-0.495,157.417,62.646
	h33.265c-20.638-88.005-123.287-138.603-206.765-90.441c-93.272,53.813-93.272,189.075,0,242.887
	c83.479,48.163,186.128-2.435,206.766-90.441H360.845z M418.125,287.023c-17.59,72.763-82.435,129.779-157.37,131.341v35.944
	c105.61-2.941,177.486-83.327,194.024-167.285H418.125z M92.095,260.441H56.05c1.308,64.459,40.641,142.705,123.285,178.014
	l13.32-33.229C132.067,379.057,94.69,321.735,92.095,260.441z M20.739,156.226l34.674,13.529
	C110.651,36.957,277.055,0.269,385.644,78.924l22.338-29.943C277.545-46.281,86.76,1.604,20.739,156.226z"/>
</svg>
