<svg xmlns="http://www.w3.org/2000/svg" enable-background="new 0 0 24 24" viewBox="0 0 24 24"><path fill="#444444" d="M22.942 5.286C20.739 2.062 17.078-.018 12.936 0 8.049.021 3.854 2.962 1.994 7.165l-.03.077 8.784-.038 7.83-.035C20.286 7.16 21.841 6.429 22.942 5.286zM23 18.622c-1.112-1.143-2.663-1.852-4.379-1.853l-.001 0-7.799.044-8.814.039c.969 2.164 2.492 3.929 4.39 5.166l.045.028c1.851 1.234 4.125 1.965 6.57 1.954.01 0 .022 0 .032 0C17.214 23.982 20.853 21.832 23 18.622zM1.559 15.646l9.709-.042 6.261-.027.001 0c1.972-.015 3.561-1.623 3.552-3.599 0-.007 0-.013 0-.019l0-.001c0-.004 0-.006 0-.01-.009-1.985-1.622-3.586-3.604-3.577-.004 0-.007 0-.01 0L1.527 8.44C1.17 9.579.995 10.787 1 12.045c0 .016 0 .033 0 .049C1.006 13.364 1.209 14.585 1.559 15.646z"/></svg>