<svg xmlns="http://www.w3.org/2000/svg" viewBox="0 0 24 24"><path fill="#444444" d="M2.42 7.939a.502.502 0 0 1-.467-.68l.037-.095C3.901 2.833 8.18.021 12.891 0h.052c3.958 0 7.66 1.973 9.915 5.285a.499.499 0 0 1-.053.627 6.353 6.353 0 0 1-4.524 1.957l-15.859.07H2.42zM12.943 1h-.047c-4.084.018-7.813 2.326-9.687 5.936l15.067-.067a5.342 5.342 0 0 0 3.512-1.364C19.704 2.674 16.43 1 12.943 1zm-.002 23c-2.368 0-4.613-.676-6.526-1.957a12.008 12.008 0 0 1-4.412-5.189.499.499 0 0 1 .454-.704l15.858-.08a6.27 6.27 0 0 1 4.543 1.928.5.5 0 0 1 .057.625c-2.231 3.35-5.939 5.359-9.918 5.376l-.056.001zm-9.682-6.854a10.924 10.924 0 0 0 3.666 4.036A10.693 10.693 0 0 0 12.914 23h.049a10.988 10.988 0 0 0 8.883-4.589 5.275 5.275 0 0 0-3.526-1.341l-15.061.076zM17.89 15.28H1.83a.5.5 0 0 1-.485-.377A12.034 12.034 0 0 1 1 12.095c-.01-1.069.106-2.061.346-2.999a.5.5 0 0 1 .484-.376h16.06a3.31 3.31 0 0 1 3.219 2.605c.023.104.036.2.048.308l.013.367a3.297 3.297 0 0 1-.957 2.313 3.222 3.222 0 0 1-2.323.967zm-15.662-1H17.89a2.24 2.24 0 0 0 1.613-.67c.357-.357.587-.826.651-1.323.007-.098.016-.192.016-.287l-.01-.31c-.005-.015-.012-.079-.028-.151A2.307 2.307 0 0 0 17.89 9.72H2.227A10.549 10.549 0 0 0 2 12.035c.008.806.087 1.564.228 2.245z"/></svg>