<?xml version="1.0" encoding="utf-8"?>
<!-- Generator: Adobe Illustrator 17.0.0, SVG Export Plug-In . SVG Version: 6.00 Build 0)  -->
<!DOCTYPE svg PUBLIC "-//W3C//DTD SVG 1.1//EN" "http://www.w3.org/Graphics/SVG/1.1/DTD/svg11.dtd">
<svg version="1.1" id="Layer_1" xmlns="http://www.w3.org/2000/svg" xmlns:xlink="http://www.w3.org/1999/xlink" x="0px" y="0px"
	 width="1990px" height="1600px" viewBox="0 0 1990 1600" enable-background="new 0 0 1990 1600" xml:space="preserve">
<path fill="none" stroke="#444444" stroke-width="42" stroke-miterlimit="10" d="M1294.969,1561.598L1294.969,1561.598
	c-130.218-42.54-201.294-182.587-158.754-312.804l341.636-1045.768c42.54-130.217,182.587-201.293,312.804-158.753l0,0
	c130.217,42.54,201.293,182.587,158.754,312.804l-341.636,1045.768C1565.233,1533.061,1425.186,1604.138,1294.969,1561.598z"/>
<circle fill="none" stroke="#444444" stroke-width="42" stroke-miterlimit="10" cx="1715.325" cy="274.863" r="92.469"/>
<circle fill="none" stroke="#444444" stroke-width="42" stroke-miterlimit="10" cx="1373.165" cy="1322.235" r="92.469"/>
<circle fill="none" stroke="#444444" stroke-width="42" stroke-miterlimit="10" cx="1373.165" cy="1322.235" r="92.469"/>
<circle fill="none" stroke="#444444" stroke-width="42" stroke-miterlimit="10" cx="1373.165" cy="1322.235" r="92.469"/>
<path fill="none" stroke="#444444" stroke-width="42" stroke-miterlimit="10" d="M1446.819,1562.046
	c-18.933,6.09-38.667,9.929-58.789,11.305c0,0-0.012,0.012-0.025,0c-4.64,0.313-9.304,0.5-13.994,0.55
	c-0.925,0.012-1.851,0.025-2.776,0.025c-0.65,0.012-1.313,0-1.963-0.013c-0.338,0-0.663,0-0.988-0.012
	c-1.163-0.012-2.339-0.025-3.502-0.062c-23.448-0.613-47.196-4.59-70.644-12.243c-41.593-13.594-77.159-37.129-104.897-67.117
	c-33.515-36.191-55.625-81.786-63.24-130.633l9.479,32.139c12.093,41.018,33.84,76.546,62.04,104.821l27.112,20.734
	c51.86,39.668,114.363,55.712,174.59,49.859C1415.33,1569.836,1431.274,1566.71,1446.819,1562.046z"/>
<path fill="none" stroke="#444444" stroke-width="42" stroke-miterlimit="10" d="M1300.241,200.455
	c-31.827-107.998-130.67-177.966-237.818-177.966c-23.223,0-46.833,3.276-70.231,10.179
	C860.784,71.398,785.676,209.322,824.406,340.73l95.205,322.955l121.491,412.12l84.9,288.04
	c-5.828-37.366-3.164-76.634,9.379-115.051l56.212-172.089l53.586-164.01l139.312-426.439L1300.241,200.455z M1086.922,354.048
	c-48.984,14.444-100.394-13.569-114.838-62.553c-14.431-48.984,13.568-100.394,62.553-114.838
	c48.984-14.444,100.394,13.569,114.838,62.553C1163.918,288.194,1135.906,339.605,1086.922,354.048z"/>
<path fill="none" stroke="#444444" stroke-width="42" stroke-miterlimit="10" d="M1086.922,354.048
	c-48.984,14.444-100.394-13.569-114.838-62.553c-14.431-48.984,13.568-100.394,62.553-114.838
	c48.984-14.444,100.394,13.569,114.838,62.553C1163.918,288.194,1135.906,339.605,1086.922,354.048z"/>
<path fill="none" stroke="#444444" stroke-width="42" stroke-miterlimit="10" d="M1086.922,354.048
	c-48.984,14.444-100.394-13.569-114.838-62.553c-14.431-48.984,13.568-100.394,62.553-114.838
	c48.984-14.444,100.394,13.569,114.838,62.553C1163.918,288.194,1135.906,339.605,1086.922,354.048z"/>
<path fill="none" stroke="#444444" stroke-width="42" stroke-miterlimit="10" d="M1126.002,1363.845l-84.9-288.04L919.61,663.685
	L652.167,459.132c-44.97-34.403-97.956-51.035-150.517-51.035c-74.608,0-148.366,33.515-197.187,97.356
	c-83.224,108.811-62.49,264.48,46.321,347.717l287.915,220.21l550.544,421.099
	C1155.727,1458.287,1133.617,1412.692,1126.002,1363.845z M570.593,709.005c-31.026,40.568-89.064,48.296-129.632,17.27
	c-40.555-31.026-48.296-89.064-17.27-129.62c31.026-40.568,89.064-48.296,129.632-17.27
	C593.879,610.412,601.62,668.438,570.593,709.005z"/>
<path fill="none" stroke="#444444" stroke-width="42" stroke-miterlimit="10" d="M570.593,709.005
	c-31.026,40.568-89.064,48.296-129.632,17.27c-40.555-31.026-48.296-89.064-17.27-129.62c31.026-40.568,89.064-48.296,129.632-17.27
	C593.879,610.412,601.62,668.438,570.593,709.005z"/>
<path fill="none" stroke="#444444" stroke-width="42" stroke-miterlimit="10" d="M1197.521,1500.806l-8.279-6.328
	c-33.515-36.191-55.625-81.786-63.24-130.633l9.479,32.139C1147.574,1437.003,1169.321,1472.531,1197.521,1500.806z"/>
<path fill="none" stroke="#444444" stroke-width="42" stroke-miterlimit="10" d="M570.593,709.005
	c-31.026,40.568-89.064,48.296-129.632,17.27c-40.555-31.026-48.296-89.064-17.27-129.62c31.026-40.568,89.064-48.296,129.632-17.27
	C593.879,610.412,601.62,668.438,570.593,709.005z"/>
<path fill="none" stroke="#444444" stroke-width="42" stroke-miterlimit="10" d="M1399.223,1571.4
	c-3.602,0.888-7.328,1.538-11.193,1.951c0,0-0.012,0.012-0.025,0c-1.788,0.2-3.614,0.338-5.465,0.425
	c-1.076,0.037-2.138,0.075-3.214,0.1c-0.1,0-0.2,0.012-0.3,0c-1.463,0.025-2.939,0.037-4.414,0.025h-0.6l-7.728-0.05l-1.501-0.013
	l-1090.308-6.553c-136.986-0.825-247.372-112.55-246.547-249.535c0.413-68.243,28.338-129.87,73.207-174.452
	c45.195-44.908,107.573-72.507,176.328-72.095l361.235,2.176l550.544,421.099c-33.515-36.191-55.625-81.786-63.24-130.633
	l9.479,32.139c12.093,41.018,33.84,76.546,62.04,104.821l27.112,20.734C1276.493,1561.208,1338.996,1577.252,1399.223,1571.4z"/>
<circle fill="none" stroke="#444444" stroke-width="42" stroke-miterlimit="10" cx="270.509" cy="1319.209" r="92.469"/>
</svg>
