<?xml version="1.0" standalone="no"?>
<svg version="1.0" xmlns="http://www.w3.org/2000/svg"
 width="128" height="128" viewBox="0 0 2000.000000 2000.000000"
 preserveAspectRatio="xMidYMid meet">
<g transform="translate(0.000000,2000.000000) scale(0.100000,-0.100000)"
fill="#000000" stroke="none">
<path fill="#444444" d="M3188 18629 c-468 -33 -924 -249 -1258 -595 -160 -166 -264 -315
-365 -527 -108 -226 -167 -453 -185 -709 -13 -196 -13 -12331 0 -12527 18
-257 79 -488 190 -719 98 -203 202 -353 360 -516 306 -317 695 -516 1131 -580
96 -14 658 -16 5454 -16 l5347 0 -6 23 c-80 299 -117 656 -97 944 15 217 41
389 86 566 l7 27 -5003 0 c-3480 0 -5031 3 -5094 11 -205 24 -390 115 -540
264 -147 148 -240 335 -265 535 -14 118 -14 11332 0 11450 25 200 118 387 265
535 148 147 335 240 535 265 118 14 11332 14 11450 0 200 -25 387 -118 535
-265 147 -148 240 -335 265 -535 7 -58 10 -1671 10 -5103 0 -4775 1 -5018 18
-5013 41 12 154 35 247 50 390 62 795 45 1183 -49 57 -14 105 -25 108 -25 2 0
4 2413 4 5361 0 4809 -2 5372 -16 5468 -64 436 -263 825 -580 1131 -163 158
-313 262 -516 360 -229 110 -458 171 -713 190 -166 12 -12390 11 -12557 -1z"/>
<path fill="#444444" d="M12100 14795 c-267 -54 -505 -242 -639 -505 -48 -94 -74 -165 -108
-290 -16 -60 -18 -194 -23 -1839 l-5 -1773 -1828 1998 c-1006 1100 -1854 2021
-1885 2048 -192 164 -439 281 -681 321 -160 27 -398 17 -551 -23 -559 -145
-998 -614 -1155 -1231 -58 -229 -57 -222 -61 -1071 -2 -432 -5 -1999 -6 -3483
l-3 -2697 808 0 c699 0 818 2 885 16 356 73 629 351 740 752 l27 97 5 1721 5
1721 214 -241 c337 -379 3402 -3677 3480 -3744 175 -151 385 -254 608 -299
130 -26 366 -23 500 5 685 147 1216 763 1338 1552 24 152 24 269 29 3798 l3
3182 -816 -1 c-629 -1 -831 -4 -881 -14z"/>
<path fill="#444444" d="M16525 5118 c-214 -24 -439 -93 -645 -199 -192 -99 -302 -180 -471
-349 -114 -114 -163 -172 -228 -269 -145 -218 -242 -451 -293 -702 -20 -100
-23 -143 -23 -359 0 -217 3 -258 23 -359 157 -775 747 -1359 1517 -1502 157
-29 423 -36 582 -15 673 89 1233 513 1499 1134 104 244 148 464 147 747 -1
329 -60 575 -208 865 -323 630 -983 1026 -1697 1019 -68 -1 -159 -6 -203 -11z"/>
</g>
</svg>
