<svg xmlns="http://www.w3.org/2000/svg" width="222.389" height="150" viewBox="0 0 200 60">
    <g data-name="Group 221">
        <path data-name="Path 185" d="M151.286 0c-14.174 0-27.231 7.974-39.849 21.907C99.037 7.755 85.761 0 70.932 0c-24.56 0-42.48 17.526-42.48 41.12s17.92 40.9 42.478 40.9c15.094 0 26.793-7.076 39.849-21.184 12.619 14.152 25.456 21.228 40.506 21.228 24.558-.044 42.478-17.285 42.478-40.945S175.844 0 151.286 0zM71.105 57.27c-10.406 0-16.606-6.857-16.606-15.927s6.2-16.124 16.606-16.124c8.763 0 15.927 7.054 23.682 16.562C87.47 50.628 79.732 57.27 71.105 57.27zm79.436 0c-8.631 0-15.927-6.857-23.682-15.927 7.974-9.508 14.831-16.124 23.682-16.124 10.406 0 16.54 7.142 16.54 16.124s-6.134 15.927-16.54 15.927z" fill="#444"/>
        <path data-name="Path 186" d="M129.27 76.172l16.518-19.716c-6.572-1.976-12.641-7.887-18.928-15.226l-16.08 19.607a72.255 72.255 0 0018.49 15.335z" fill="#666"/>
        
        <path data-name="Path 195" d="M111.437 21.886A74.343 74.343 0 0093.057 6.2l-16.54 19.94c6.287 2.191 11.852 7.843 17.767 15.05l.657.46z" fill="#666"/>
        
    </g>
</svg>