<svg width="256" height="256" viewBox="0 0 256 256" fill="none" xmlns="http://www.w3.org/2000/svg">
<path d="M186.391 69C165.927 69 147.076 80.5129 128.858 100.629C110.956 80.1966 91.7891 69 70.3764 69C34.9206 69 9.04834 94.303 9.04834 128.367C9.04834 162.431 34.9206 187.418 70.3764 187.418C92.1686 187.418 109.058 177.202 127.909 156.833C146.127 177.265 164.662 187.481 186.391 187.481C221.846 187.418 247.719 162.526 247.719 128.367C247.719 94.2081 221.846 69 186.391 69ZM70.6294 151.677C55.6058 151.677 46.6549 141.778 46.6549 128.683C46.6549 115.589 55.6058 105.405 70.6294 105.405C83.2809 105.405 93.6235 115.589 104.82 129.316C94.2561 142.094 83.0912 151.677 70.6294 151.677ZM185.315 151.677C172.853 151.677 162.321 141.778 151.125 128.683C162.637 114.957 172.537 105.405 185.315 105.405C200.339 105.405 209.195 115.716 209.195 128.683C209.195 141.651 200.339 151.677 185.315 151.677Z" fill="#444"/>
<path d="M154.604 178.973L178.452 150.507C168.963 147.661 160.202 139.121 151.125 128.525L127.909 156.833C135.51 165.651 144.533 173.134 154.604 178.973Z" fill="#666"/>
<path d="M128.859 100.597C121.309 91.6525 112.342 84.0015 102.322 77.9509L78.4424 106.733C87.5198 109.896 95.5535 118.056 104.093 128.462L105.042 129.126L128.859 100.597Z" fill="#666"/>
</svg>