<?xml version="1.0" encoding="utf-8"?>
<!-- Generator: Adobe Illustrator 17.0.0, SVG Export Plug-In . SVG Version: 6.00 Build 0)  -->
<!DOCTYPE svg PUBLIC "-//W3C//DTD SVG 1.1//EN" "http://www.w3.org/Graphics/SVG/1.1/DTD/svg11.dtd">
<svg version="1.1" id="Layer_1" xmlns="http://www.w3.org/2000/svg" xmlns:xlink="http://www.w3.org/1999/xlink" x="0px" y="0px"
	 width="2500px" height="2500px" viewBox="0 0 2500 2500" enable-background="new 0 0 2500 2500" xml:space="preserve">
<path fill="#444444" d="M2166.016,177.246c1.953,1.953,3.418-0.977,4.395-0.977c49.316-27.832,97.168-56.152,146.484-84.961
	c0.977-0.977,1.953-1.953,2.441-1.953c-37.598-21.484-75.195-43.945-112.305-64.941c-13.184-7.812-26.855-14.16-39.062-23.926
	h-1.953l0.977,0.977C2166.016,60.059,2166.016,119.141,2166.016,177.246z"/>
<path fill="#444444" d="M2462.891,174.316c-2.441-3.418-6.348-5.371-9.766-6.348c-25.879-15.137-51.758-29.297-76.66-44.434
	c-22.461-12.695-44.434-25.879-66.895-38.574c-0.977,0.977-1.953,1.953-2.441,1.953c-49.316,28.32-97.168,56.152-146.484,84.961
	c-1.953,0.977-2.441,2.441-4.394,0.977c-2.441,0.977-4.395-0.977-6.348-1.953c-7.812-4.395-16.113-9.766-24.902-14.16
	c-40.039-23.438-79.59-46.387-119.629-69.824c-2.441-1.953-3.418-0.977-5.371,0c-24.902,14.16-49.805,28.32-75.195,42.969
	c-26.855,15.137-52.734,31.25-79.59,45.41c-26.855,14.16-52.734,30.273-78.613,45.41c-36.621,21.484-72.266,41.992-108.887,63.477
	c-31.25,18.066-62.5,35.645-93.75,54.199c-7.813,4.395-16.113,7.812-22.461,14.16c-1.953,1.953-0.977,4.395-0.977,7.324v166.016
	c0,3.418-0.977,7.324-1.953,10.742c-49.805,130.371-100.098,259.766-149.902,390.137c-1.953,3.418-1.953,7.324-1.953,11.719v210.449
	c0,4.394-0.977,7.324-5.371,9.766c-33.203,18.555-66.895,38.574-100.098,58.105c-2.441,1.953-4.395,2.441-6.348,5.371
	c-14.16,36.621-27.832,72.266-41.992,108.887c-3.418-0.977-2.441-4.395-4.395-6.348c-27.832-69.824-54.199-140.137-80.078-209.473
	c-74.219-191.895-147.461-383.789-221.191-575.684c-1.953-5.371-2.441-10.742-2.441-16.113V354.98c0-0.977-0.977-1.953-1.953-2.441
	c-29.297-16.113-58.105-33.203-87.402-49.805c-32.227-18.555-64.941-37.598-97.168-56.152
	c-30.273-18.066-61.523-35.645-91.797-52.734c-35.645-20.508-72.266-41.016-106.934-62.5
	c-33.203-19.531-66.895-38.574-101.074-57.129c-24.902-14.16-49.805-28.32-75.684-43.945c-16.113-9.766-33.203-19.531-49.805-28.32
	c-2.441-1.953-6.348-1.953-8.789,0c-10.742,6.348-21.484,12.695-31.25,18.066c-40.039,22.461-79.59,47.363-120.605,67.871
	c-28.32,14.16-55.176,31.25-83.008,47.363C46.387,147.461,23.437,161.133,0,174.316v180.176c1.953,1.953,1.953,3.418,2.441,5.371
	c62.5,152.832,125.977,304.199,188.477,456.055c1.953,3.418,2.441,5.371,6.348,7.813c35.645,19.531,70.312,41.016,105.957,60.547
	c4.395,1.953,5.371,4.395,5.371,8.789v199.707c0,5.371,0.977,9.766,2.441,14.16c152.832,369.629,305.176,738.77,457.031,1108.398
	c1.953,5.371,5.371,8.789,10.742,11.719c149.902,86.426,300.781,173.34,450.684,259.766c1.953,0.977,2.441,2.441,5.371,1.953
	c1.953-0.977,2.441-0.977,4.395-1.953c27.832-15.137,54.199-31.25,82.031-46.387c22.461-12.695,45.41-25.879,67.871-39.062
	c-2.441,0-5.371-1.953-7.324-2.441c-10.742-6.347-22.461-12.695-33.203-18.554l-106.933-61.524
	c-1.953-0.977-3.418-3.418-5.371-2.441c-0.977,0.977-1.953,1.953-1.953,2.441c0-0.977,0-2.441,1.953-2.441
	c1.953-0.977,4.395,1.953,5.371,2.441l106.933,61.524c10.742,6.347,22.461,12.695,33.203,18.554
	c1.953,1.953,4.395,2.441,7.324,2.441c1.953-0.977,4.395-1.953,6.348-2.441c38.574-21.484,75.684-43.945,113.281-64.941
	c61.523-34.668,122.07-70.312,183.594-105.469c2.441-1.953,4.395-3.418,6.348-6.347c44.434-107.91,89.355-216.797,133.789-324.707
	c52.734-128.418,105.957-256.836,158.691-385.742c62.5-151.855,125.977-304.199,188.477-456.055
	c46.387-113.281,93.75-227.539,141.113-341.797c49.316-118.652,97.168-236.328,146.484-354.98c0.977-2.441,1.953-6.348,1.953-9.766
	V182.129C2463.867,178.711,2464.844,176.27,2462.891,174.316L2462.891,174.316z M304.199,528.809c-0.977,0.977-1.953,0-2.441,0
	c-0.977-0.977-1.953-0.977-1.953-0.977v6.348c-0.977,0.977-1.953,0-2.441,0c-49.805-28.32-100.098-58.105-149.902-86.426
	c-0.977,0-0.977-0.977-0.977-0.977c0.977-1.953,2.441-2.441,5.371-3.418c0.977,0,0.977-0.977,1.953-0.977
	c-0.977,0-0.977-0.977-0.977-0.977c-0.977-0.977-0.977-2.441-0.977-4.395V263.184v173.828c0,1.953-0.977,2.441,0.977,4.395
	c0.977-1.953,2.441-2.441,5.371-3.418c49.316-28.32,98.145-57.129,147.461-85.449h0.977
	C304.199,411.133,304.199,469.727,304.199,528.809L304.199,528.809z M720.215,1379.883c-33.691,19.531-68.848,39.062-102.539,59.082
	c-2.441,1.953-5.371,1.953-7.812,0.977c-0.977,0-0.977-0.977-0.977-0.977l-0.977,0.977c-2.441,1.953-5.371,1.953-7.812,0.977
	c-49.316-28.32-98.145-56.152-147.461-85.449c-0.977-0.977-1.953-1.953-2.441-1.953c1.953-0.977,2.441-1.953,4.395-1.953
	c1.953-0.977,4.395-1.953,5.371-3.418v-22.461v-142.578v-1.953v151.367c1.953-0.977,2.441-1.953,4.395-1.953
	c25.879-15.137,50.781-29.297,76.66-44.434c18.066-10.742,36.621-21.484,54.199-32.227c5.371,2.441,11.719,6.348,17.09,10.742
	c7.324,1.953,13.184,6.348,19.531,10.742c43.945,24.902,87.402,49.805,131.348,75.684c1.953,0.977,2.441,1.953,4.395,2.441
	C751.465,1362.305,736.328,1370.117,720.215,1379.883L720.215,1379.883z M767.578,2038.574v-83.008V2038.574z M767.578,1874.512
	v-2.441V1874.512z M916.504,1959.473c-38.574,22.461-77.637,44.434-116.211,66.895c-8.789,5.371-18.066,10.742-26.855,15.137
	c-4.395,2.441-5.371,2.441-5.371,0.977c0.977,2.441,1.953,1.953,5.371-0.977c8.789-5.371,18.066-10.742,26.855-15.137
	C838.867,2003.906,877.93,1981.445,916.504,1959.473c1.953-0.977,2.441-1.953,3.418-2.441
	C919.922,1957.52,918.457,1958.496,916.504,1959.473z M921.875,712.402c0-3.418-1.953-5.371-4.394-7.324
	c-8.789-5.371-18.066-10.742-27.832-15.137c-30.273-18.066-61.523-35.645-91.797-52.734c-10.742-5.371-19.531-12.695-31.25-17.09
	v176.758c-1.953-0.977-3.418-1.953-5.371-2.441v7.812c-16.113-8.789-33.203-18.555-49.805-28.32
	c-33.203-18.555-65.918-38.574-99.121-57.129c-1.953-0.977-2.441-1.953-4.395-1.953c0-2.441,2.441-2.441,4.395-4.395
	c0.977-0.977,0.977-0.977,1.953-0.977h-0.977c0-2.441,2.441-2.441,4.395-4.394c49.316-28.32,97.168-56.152,146.484-84.961
	c0.977-0.977,1.953-1.953,2.441-0.977c11.719,4.395,21.484,11.719,31.25,17.09c31.25,18.066,61.523,35.645,91.797,52.734
	c8.789,5.371,18.066,10.742,27.832,15.137C919.922,707.031,921.875,708.984,921.875,712.402L921.875,712.402z M1230.469,2319.824
	v160.645C1229.492,2425.781,1229.492,2373.535,1230.469,2319.824z M1229.492,2311.035c-1.953-0.977-3.418-1.953-5.371-2.441v7.812
	c-51.758-29.297-102.539-59.082-154.297-89.355c2.441-1.953,4.394-2.441,7.324-4.395c-0.977-0.977-0.977-0.977-1.953-0.977
	c51.758-29.297,102.539-59.082,154.297-89.355V2311.035L1229.492,2311.035z M1383.301,1863.77c-1.953,1.953-4.395,2.441-6.348,4.395
	c0.977,0,0.977,0.977,0.977,0.977c-7.812,6.348-17.09,10.742-25.879,15.137c-41.992,23.926-83.008,48.34-124.023,72.266
	c-1.953,0.977-2.441,2.441-5.371,2.441c-49.316-28.32-99.121-57.129-147.949-85.449c-1.953-0.977-4.395-1.953-3.418-4.394
	c1.953-0.977,3.418-1.953,5.371-2.441c0-0.977-0.977-0.977,0-1.953c49.316-28.32,99.121-57.129,147.949-85.449
	c1.953-0.977,4.395-1.953,6.348-2.441c0.977,4.395,5.371,5.371,7.813,6.348C1286.621,1809.57,1334.961,1836.914,1383.301,1863.77
	L1383.301,1863.77z M1692.871,441.406c49.317-28.32,99.121-57.129,148.926-85.449c1.953-0.977,3.418-2.441,5.371-1.953v173.34
	c0,2.441-1.953,4.395-4.395,6.348c-39.062,22.461-79.59,45.41-118.652,68.848c-3.418,1.953-7.324,4.395-10.742,6.348
	c-3.418,1.953-6.348,4.395-10.742,5.371c-3.418,1.953-7.324,4.395-10.742,6.348C1692.871,560.059,1692.871,500,1692.871,441.406
	L1692.871,441.406z M1404.785,2033.203c1.953-0.977,3.418-0.977,4.395-3.418C1408.203,2031.738,1406.25,2032.227,1404.785,2033.203z
	 M1411.621,2027.832h1.953H1411.621z M1423.34,2021.973C1423.34,2021.973,1422.363,2021.973,1423.34,2021.973
	C1422.363,2022.461,1422.363,2022.461,1423.34,2021.973z M1433.105,2016.602L1433.105,2016.602z M1434.082,2014.648
	c-0.977,0-0.977,0.977-0.977,0.977S1434.082,2015.625,1434.082,2014.648z M1476.074,1637.207c-1.953,0.977-2.441,2.441-4.395,1.953
	c25.879-64.453,51.758-128.418,76.66-193.848c1.953-3.418,2.441-5.371,5.371-4.395v-0.977c1.953-5.371,4.395-5.371,8.789-2.441
	c41.016,23.926,82.031,47.363,123.047,71.289c1.953,0.977,2.441,1.953,4.395,2.441c-1.953,1.953-4.395,2.441-6.348,4.395
	c0.977,0.977,0.977,0.977,1.953,0.977c-19.531,11.719-40.039,23.926-59.57,34.668
	C1576.172,1580.078,1525.879,1608.398,1476.074,1637.207z M1686.523,2047.852c-0.977,0.977-0.977,0.977-1.953,0.977h0.977
	c0,2.441-2.441,2.441-4.394,4.395c-48.34,27.832-96.192,55.176-144.531,83.008c-0.977,0.977-1.953,0.977-1.953,0.977
	c-1.953-1.953-0.977-3.418-0.977-5.371v-164.062c0-1.953-0.977-4.395,0.977-5.371c1.953,0.977,2.441,1.953,4.394,2.441v-1.953
	c0-1.953-0.977-4.395,0.977-5.371c49.805,29.297,101.074,58.105,150.879,87.402
	C1690.918,2045.898,1688.477,2046.875,1686.523,2047.852L1686.523,2047.852z M1810.547,1043.457
	c-24.902-14.16-49.805-28.32-75.195-42.969c-1.953-0.977-2.441-0.977-3.418-0.977c0.977,0,1.953,0,3.418,0.977
	C1760.742,1014.16,1785.644,1028.32,1810.547,1043.457c11.719,6.348,23.926,14.16,36.621,21.484
	C1834.961,1057.129,1823.242,1049.805,1810.547,1043.457z M1995.605,1328.125c-41.016-23.926-82.031-47.363-123.047-71.289
	c-7.812-4.395-16.113-8.789-25.879-14.16c11.719-6.348,23.438-13.184,34.668-19.531c-11.719,6.348-22.461,12.695-34.668,19.531
	c8.789,5.371,18.067,9.766,25.879,14.16C1913.086,1281.25,1954.59,1305.176,1995.605,1328.125c3.418,1.953,4.395,2.441,5.371,0.977
	C2000.977,1331.055,1999.023,1331.055,1995.605,1328.125z M2001.465,796.387c-1.953,1.953-4.395,2.441-6.348,4.395
	c0.977,0,0.977,0.977,1.953,0.977c-11.719,7.812-24.902,15.137-36.621,22.461c-39.062,22.461-78.613,45.41-116.699,67.871
	c-51.758-29.297-102.539-59.082-154.297-89.355c2.441-1.953,4.395-2.441,7.324-4.395c-0.977-0.977-0.977-0.977-1.953-0.977
	c12.695-7.812,24.902-14.16,36.621-21.484c37.598-21.484,75.684-43.945,113.281-64.941c3.418-1.953,6.348-0.977,8.789,0.977
	c48.34,28.32,97.168,56.152,145.508,84.961C1999.023,795.41,2000.977,796.387,2001.465,796.387L2001.465,796.387z M2303.223,437.5
	c-27.832-16.113-55.176-32.227-83.008-48.34c-19.531-11.719-39.062-22.461-59.082-34.668c-1.953-0.977-4.395-0.977-4.395-3.418
	c0.977,2.441,2.441,2.441,4.395,3.418c19.531,11.719,39.062,22.461,59.082,34.668C2248.047,405.762,2275.39,421.875,2303.223,437.5
	c2.441,1.953,4.395,1.953,5.371,2.441C2307.617,439.453,2306.152,438.477,2303.223,437.5z"/>
</svg>
