<svg xmlns="http://www.w3.org/2000/svg" width="1200" height="627">
	<rect width="1200" height="627"  style="fill:#0c273a;"/>
	<g transform="translate(600 314) scale(1.8)">
		<g class="bg">
			<path fill="#ff669925" stroke="none" d="M-550,0L-544.4723618090452,0.6445314559080411L-538.9447236180905,1.1465096440221405L-533.4170854271357,1.471082040959849L-527.8894472361809,1.5870070133117233L-522.3618090452261,1.470816349458445L-516.8341708542713,1.1113373692633912L-511.30653266331655,0.5142906096285063L-505.7788944723618,-0.29318955006272523L-500.25125628140705,-1.257837045936347L-494.72361809045225,-2.2940875043664195L-489.1959798994975,-3.2738395909246694L-483.66834170854275,-4.013124129482151L-478.14070351758795,-4.2890721834870575L-472.6130653266331,-3.9525338765830798L-467.08542713567834,-3.0201658848275175L-461.5577889447236,-1.5918590828791308L-456.03015075376885,0.23213384656578423L-450.50251256281405,2.3605844037625214L-444.9748743718593,4.703825979296312L-439.44723618090455,7.171802940011711L-433.91959798994975,9.678095327487654L-428.391959798995,12.147942321937983L-422.86432160804014,14.528834121766415L-417.33668341708545,16.801510459344144L-411.8090452261306,18.984338563149414L-406.28140703517585,21.11442833841431L-400.7537688442211,23.19551261539229L-395.22613065326635,25.153847944058768L-389.69849246231155,26.85767349388309L-384.1708542713568,28.171250292547956L-378.64321608040206,28.988520942596264L-373.11557788944725,29.241293699088022L-367.58793969849245,28.897088817412758L-362.0603015075377,27.955347996016158L-356.5326633165829,26.444797600845906L-351.0050251256281,24.423045374203657L-345.47738693467335,21.979392959091815L-339.9497487437186,19.241225566839667L-334.42211055276385,16.380462979384042L-328.89447236180905,13.606998791093508L-323.36683417085425,11.130995339072564L-317.8391959798995,9.104656736067549L-312.31155778894475,7.594638661619495L-306.78391959798995,6.6033551708763225L-301.2562814070352,6.1005412804924015L-295.7286432160804,6.0383579432018095L-290.2010050251256,6.353809484718605L-284.67336683417085,6.967999578636438L-279.1457286432161,7.786849651929954L-273.6180904522613,8.704266376252155L-268.0904522613065,9.607348402442259L-262.56281407035175,10.38287470279083L-257.035175879397,10.924332779938876L-251.50753768844223,11.13887099771824L-245.97989949748742,10.953706870485252L-240.45226130653265,10.32165447595742L-234.9246231155779,9.22553057130994L-229.39698492462313,7.681257265297455L-223.86934673366835,5.739512526031364L-218.34170854271355,3.485816395102388L-212.8140703517588,1.0390180304184797L-207.28643216080403,-1.451692071965363L-201.75879396984925,-3.810838397072001L-196.23115577889445,-5.840950470179246L-190.7035175879397,-7.32577734487367L-185.17587939698493,-8.031353358273853L-179.64824120603015,-7.708080655022725L-174.1206030150754,-6.113516018229015L-168.59296482412057,-3.099047410168265L-163.06532663316582,1.2549879281496559L-157.53768844221105,6.637585210800658L-152.0100502512563,12.702422847041188L-146.48241206030147,19.22875751521714L-140.95477386934672,26.13291136620245L-135.42713567839195,33.39987461726802L-129.8994974874372,41.008498123734384L-124.37185929648243,48.888160594274915L-118.84422110552765,56.91344453070257L-113.31658291457289,64.92113187517688L-107.78894472361813,72.73134814743075L-102.26130653266327,80.16370330289422L-96.73366834170851,87.04692808703906L-91.20603015075375,93.2235187147681L-85.67839195979899,98.55131824710485L-80.15075376884423,102.90364068565911L-74.62311557788945,106.16918845135109L-69.09547738693469,108.25275216885389L-63.56783919597993,109.07748797244791L-58.04020100502516,108.58939113363857L-52.51256281407039,106.76430587571346L-46.984924623115546,103.6170412429491L-41.45728643216078,99.20981969102525L-35.92964824120601,93.65132339174224L-30.40201005025125,87.06800719661945L-24.874371859296485,79.53120877775173L-19.34673366834172,70.9713221822817L-13.819095477386956,61.17483344909507L-8.291457286432191,49.90348547246332L-2.7638190954774267,37.03932920909639L2.7638190954774267,22.436002357543984L8.291457286432191,6.852944055646847L13.819095477386956,-8.82734181658797L19.34673366834172,-23.986811264944883L24.874371859296485,-37.94514885272642L30.40201005025125,-50.023131277725284L35.92964824120601,-59.637789623494946L41.45728643216078,-66.41336159678632L46.984924623115546,-70.24323701382175L52.51256281407039,-71.26128849671917L58.04020100502516,-69.76460238699828L63.56783919597993,-66.14636038464923L69.09547738693469,-60.85267208270714L74.62311557788945,-54.351139952487614L80.15075376884423,-47.100355019139336L85.67839195979899,-39.51618414050198L91.20603015075375,-31.934017001582294L96.73366834170851,-24.567368407132687L102.26130653266327,-17.468114839077966L107.78894472361813,-10.514762506405518L113.31658291457289,-3.4967422571816207L118.84422110552765,3.664992563636417L124.37185929648243,10.738942032055851L129.8994974874372,17.273467595276397L135.42713567839195,22.818263563633447L140.95477386934672,27.049024891893893L146.48241206030147,29.78677348922681L152.01005025125625,30.97861978999212L157.5376884422111,30.673897700805412L163.06532663316585,29.003917176794786L168.59296482412063,26.165863210470274L174.1206030150754,22.410458325437713L179.64824120603015,18.033735863648772L185.17587939698493,13.374337605847154L190.7035175879397,8.818457018906328L196.23115577889445,4.81152135450489L201.75879396984922,1.8559711907180623L207.28643216080397,0.4220956647623297L212.81407035175883,0.7077416080911996L218.3417085427136,2.4621539178437715L223.86934673366835,5.1629806283768165L229.39698492462313,8.302730507795252L234.9246231155779,11.499861755351027L240.45226130653265,14.489939160111536L245.97989949748742,17.09554828656382L251.5075376884422,19.204842265376122L257.03517587939706,20.759858879034454L262.5628140703517,21.752153532537783L268.09045226130655,22.22591481749794L273.61809045226124,22.293481984289482L279.1457286432161,22.174995068036793L284.6733668341708,22.266018799122364L290.2010050251256,23.110157841271157L295.72864321608046,24.966214710950336L301.25628140703515,27.46173835486349L306.78391959799,30.051979764495975L312.3115577889447,32.380332871351506L317.83919597989956,34.261828101889506L323.3668341708542,35.6094065010855L328.89447236180905,36.39054223396356L334.42211055276374,36.6050862382606L339.9497487437186,36.27319025921743L345.47738693467346,35.428116147535576L351.0050251256281,34.11178175926987L356.53266331658295,32.37212102155745L362.06030150753764,30.26177942780575L367.5879396984925,27.837794980864064L373.1155778894472,25.161927815441192L378.64321608040206,22.301289606281948L384.1708542713567,19.328926712304185L389.69849246231155,16.324034347920154L395.2261306532664,13.37148318228267L400.7537688442211,10.560202516294536L406.28140703517596,7.979437147802053L411.8090452261306,5.710777193151978L417.33668341708545,3.8132192908353617L422.86432160804014,2.3030736522500033L428.391959798995,1.1436301248620202L433.9195979899497,0.26306576743390575L439.44723618090455,-0.40804777885083443L444.9748743718592,-0.9098067622612274L450.50251256281405,-1.249858547812656L456.0301507537689,-1.4166790523101562L461.5577889447236,-1.399093514034488L467.08542713567846,-1.2040236500403612L472.6130653266331,-0.8647288419525718L478.14070351758795,-0.43594277853434255L483.66834170854264,0.019322439321592687L489.1959798994975,0.4429723220961506L494.7236180904522,0.7904020240620838L500.25125628140705,1.0343241752400358L505.7788944723619,1.1653785065697793L511.30653266331655,1.1908931357861414L516.8341708542714,1.1326534221225038L522.3618090452261,1.0237525742894924L527.8894472361809,0.901521738746792L533.4170854271356,0.7852539716038605L538.9447236180905,0.6408274918080845L544.4723618090452,0.39609320235270606L550,0L550,0L544.4723618090452,-0.10029835862176019L538.9447236180905,-0.16548036465649363L533.4170854271356,-0.27873853392340064L527.8894472361809,-0.5381585649452176L522.3618090452261,-0.9950586191326737L516.8341708542714,-1.6365119181091183L511.30653266331655,-2.419289512826762L505.7788944723619,-3.291524661242259L500.25125628140705,-4.200097132770898L494.7236180904522,-5.095050253907506L489.1959798994975,-5.933986512956625L483.66834170854264,-6.6862279598524665L478.14070351758795,-7.335671490964083L472.6130653266331,-7.880697246901821L467.08542713567846,-8.32929751998614L461.5577889447236,-8.68923302965355L456.0301507537689,-8.95755075977881L450.50251256281405,-9.117558632632399L444.9748743718592,-9.147870096093442L439.44723618090455,-9.039857848998848L433.9195979899497,-8.815828130417545L428.391959798995,-8.540046950043441L422.86432160804014,-8.312707782669273L417.33668341708545,-8.239724099420501L411.8090452261306,-8.39194658417408L406.28140703517596,-8.784327232127698L400.7537688442211,-9.383991630292536L395.2261306532664,-10.128989591446787L389.69849246231155,-10.942969057427796L384.1708542713567,-11.74400382953837L378.64321608040206,-12.450241401694344L373.1155778894472,-12.984280810384847L367.5879396984925,-13.276973587051952L362.06030150753764,-13.270741658659686L356.53266331658295,-12.922331154625676L351.0050251256281,-12.204926638612102L345.47738693467346,-11.109614929605794L339.9497487437186,-9.646268508551886L334.42211055276374,-7.844014124329326L328.89447236180905,-5.751592792808615L323.3668341708542,-3.4381807286786206L317.83919597989956,-0.9958128364602521L312.3115577889447,1.4541142033626393L306.78391959799,3.7446568402235187L301.25628140703515,5.625868602233019L295.72864321608046,6.696498298650621L290.2010050251256,6.3920035524149705L284.6733668341708,4.348276000493079L279.1457286432161,0.8624138261403127L273.61809045226124,-3.453499324069488L268.09045226130655,-8.106599368376642L262.5628140703517,-12.753488685301459L257.03517587939706,-17.136799297645496L251.5075376884422,-21.050826474084452L245.97989949748742,-24.33213642397626L240.45226130653265,-26.86315982538414L234.9246231155779,-28.583610756465823L229.39698492462313,-29.509350518863148L223.86934673366835,-29.760966703970343L218.3417085427136,-29.60077001404134L212.81407035175883,-29.448185903007165L207.28643216080397,-29.77470168746054L201.75879396984922,-30.82276032760461L196.23115577889445,-32.43321446284122L190.7035175879397,-34.224797214808085L185.17587939698493,-35.83626841590622L179.64824120603015,-37.01562393637823L174.1206030150754,-37.620164418773854L168.59296482412063,-37.60007865844264L163.06532663316585,-36.98583792500038L157.5376884422111,-35.88005822877915L152.01005025125625,-34.45161674154032L146.48241206030147,-32.93073772670732L140.95477386934672,-31.605109288620127L135.42713567839195,-30.818145028159655L129.8994974874372,-30.96993279997883L124.37185929648243,-32.51401928910425L118.84422110552765,-35.917747642831245L113.31658291457289,-41.52118526706442L107.78894472361813,-49.305006934989564L102.26130653266327,-58.796865074225856L96.73366834170851,-69.2559258360587L91.20603015075375,-79.90848220421356L85.67839195979899,-90.05683972594792L80.15075376884423,-99.10102253168638L74.62311557788945,-106.53973534807312L69.09547738693469,-111.97464307289225L63.56783919597993,-115.12027927668768L58.04020100502516,-115.81660430339069L52.51256281407039,-114.0398847470242L46.984924623115546,-109.90445595724754L41.45728643216078,-103.64178017240609L35.92964824120601,-95.54258833280191L30.40201005025125,-85.87491217626726L24.874371859296485,-74.83687575653715L19.34673366834172,-62.58749548019486L13.819095477386956,-49.316124066526925L8.291457286432191,-35.288791676248145L2.7638190954774267,-20.859016169262908L-2.7638190954774267,-6.398087286751178L-8.291457286432191,7.16665084148283L-13.819095477386956,19.112433070315667L-19.34673366834172,28.920825041123656L-24.874371859296485,36.147435918575766L-30.40201005025125,40.55719256392038L-35.92964824120601,42.22314836071359L-41.45728643216078,41.494905801810845L-46.984924623115546,38.87863159663322L-52.51256281407039,34.927330343518165L-58.04020100502516,30.17544712625967L-63.56783919597993,25.103879898044106L-69.09547738693469,20.119214070902242L-74.62311557788945,15.540069503011473L-80.15075376884423,11.588824573494207L-85.67839195979899,8.388710223184063L-91.20603015075375,5.966432440459357L-96.73366834170851,4.260202179917044L-102.26130653266327,3.132747660467411L-107.78894472361813,2.388703376077016L-113.31658291457289,1.795787053043048L-118.84422110552765,1.10943267703835L-124.37185929648243,0.1009264113912326L-129.8994974874372,-1.4111142918713302L-135.42713567839195,-3.5287447469912805L-140.95477386934672,-6.25219843764281L-146.48241206030147,-9.48540018358896L-152.0100502512563,-13.084955527510038L-157.53768844221105,-16.945334149410606L-163.06532663316582,-21.081167199141348L-168.59296482412057,-25.631666642434563L-174.1206030150754,-30.715962445960518L-179.64824120603015,-36.25263962368248L-185.17587939698493,-41.973511665050246L-190.7035175879397,-47.56680439429812L-196.23115577889445,-52.767194574682016L-201.75879396984925,-57.37704464029798L-207.28643216080403,-61.26231848695717L-212.8140703517588,-64.34362754278277L-218.34170854271355,-66.58670186344325L-223.86934673366835,-67.99258062550997L-229.39698492462313,-68.58766970427212L-234.9246231155779,-68.41422580733798L-240.45226130653265,-67.52205236638791L-245.97989949748742,-65.96215689321043L-251.50753768844223,-63.78288225364249L-257.035175879397,-61.02866806939068L-262.56281407035175,-57.74120914573737L-268.0904522613065,-53.9624362358407L-273.6180904522613,-49.73851683167062L-279.1457286432161,-45.124002939599805L-284.67336683417085,-40.18535357771597L-290.2010050251256,-35.0033169175625L-295.7286432160804,-29.67402055927351L-301.2562814070352,-24.308972022093673L-306.78391959798995,-19.03422014247365L-312.31155778894475,-13.987935884769362L-317.8391959798995,-9.312392072901627L-323.36683417085425,-5.131681917616701L-328.89447236180905,-1.5124016284279374L-334.42211055276385,1.5650163782047133L-339.9497487437186,4.18487448875641L-345.47738693467335,6.442428895394762L-351.0050251256281,8.40875535021254L-356.5326633165829,10.125087653534685L-362.0603015075377,11.609005245088879L-367.58793969849245,12.860096795572366L-373.11557788944725,13.862324094737366L-378.64321608040206,14.584067225076815L-384.1708542713568,14.977192383535577L-389.69849246231155,14.976227915066168L-395.22613065326635,14.500066309049686L-400.7537688442211,13.464189799150393L-406.28140703517585,11.817640220114303L-411.8090452261306,9.59866996365422L-417.33668341708545,6.953280639432012L-422.86432160804014,4.0871405942819745L-428.391959798995,1.2063134454641953L-433.91959798994975,-1.511572570837377L-439.44723618090455,-3.924858787585511L-444.9748743718593,-5.9295580361174824L-450.50251256281405,-7.460886499779471L-456.03015075376885,-8.495431041239481L-461.5577889447236,-9.054230422425226L-467.08542713567834,-9.20796289263752L-472.6130653266331,-9.083464479888107L-478.14070351758795,-8.849412402518796L-483.66834170854275,-8.625192697268915L-489.1959798994975,-8.387751859335342L-494.72361809045225,-8.052010470712084L-500.25125628140705,-7.571963595312578L-505.7788944723618,-6.947413189761931L-511.30653266331655,-6.2025563004409445L-516.8341708542713,-5.370355282551318L-522.3618090452261,-4.483840827339936L-527.8894472361809,-3.5715564645126934L-533.4170854271357,-2.655452666040147L-538.9447236180905,-1.7503372366926782L-544.4723618090452,-0.8643397883901835L-550,0Z"></path>
		</g>
		<g class="ribbon">
			<path fill="none" stroke="#ffffff55" stroke-width="6" d="M-550,0L-544.4723618090452,-0.4228106644348221L-538.9447236180905,-0.830520521753475L-533.4170854271357,-1.2079192479579195L-527.8894472361809,-1.540412878115808L-522.3618090452261,-1.8143239162640334L-516.8341708542713,-2.0171757601656077L-511.30653266331655,-2.13795653448884L-505.7788944723618,-2.167357749783532L-500.25125628140705,-2.097983601007904L-494.72361809045225,-1.92452718238519L-489.1959798994975,-1.6439104181110091L-483.66834170854275,-1.2553850830584379L-481.5596547481934,-1.0790013081093663L-478.14070351758795,-0.7605929055144753L-475.6051331616428,-0.4990966249546405L-472.6130653266331,-0.16358339584149278L-467.08542713567834,0.5292112790276787L-461.5577889447236,1.30904436538821L-456.03015075376885,2.1649648335133502L-450.50251256281405,3.08396853957337L-444.9748743718593,4.051188179992137L-439.44723618090455,5.050119338300038L-433.91959798994975,6.062879320944774L-428.391959798995,7.070494921896321L-422.86432160804014,8.053214754933137L-417.33668341708545,8.990841355143859L-414.1491849924952,9.503091665688371L-411.8090452261306,9.863077884440013L-406.28140703517585,10.649883985757404L-400.7537688442211,11.331835122037447L-397.24763145970337,11.701595096573506L-395.22613065326635,11.890479612749962L-389.69849246231155,12.308687545142304L-384.1708542713568,12.570985790785102L-378.64321608040206,12.663873500241444L-373.11557788944725,12.57611267841106L-367.58793969849245,12.29898875759471L-362.0603015075377,11.8265364806215L-356.5326633165829,11.155726877303119L-351.0050251256281,10.286611657695804L-345.47738693467335,9.222421947771558L-345.34905926982003,9.195444558473444L-339.9497487437186,7.969618948769586L-334.42211055276385,6.537894801512467L-328.89447236180905,4.940122671402489L-323.36683417085425,3.1922558281508744L-317.8391959798995,1.3131762655882784L-317.1306136910328,1.0638905616115535L-312.31155778894475,-0.6755058200723632L-306.78391959798995,-2.749699611752781L-301.2562814070352,-4.8831254885851285L-295.7286432160804,-7.047647543928803L-290.2010050251256,-9.213642602124228L-284.67336683417085,-11.350400917238028L-279.1457286432161,-13.426553185121673L-273.6180904522613,-15.410518019539314L-268.0904522613065,-17.270963641730297L-262.56281407035175,-18.977277217310586L-257.035175879397,-20.500035050467535L-251.50753768844223,-21.811466717294955L-245.97989949748742,-22.88590619084853L-240.45226130653265,-23.70022308169506L-234.9246231155779,-24.234227289582616L-229.39698492462313,-24.47104063314041L-223.86934673366835,-24.397429392566618L-218.34170854271355,-24.00409216101394L-212.8140703517588,-23.28589794841303L-207.28643216080403,-22.242070110062024L-201.75879396984925,-20.876312373523536L-196.23115577889445,-19.196874002160943L-190.7035175879397,-17.21655195197045L-185.17587939698493,-14.95262873931389L-179.64824120603015,-12.426745629099276L-174.1206030150754,-9.664711663694437L-172.98421292702676,-9.070259514918705L-170.2419259194829,-7.601470237285105L-168.59296482412057,-6.696249969796669L-163.06532663316582,-3.554683690791992L-157.53768844221105,-0.2765647829415478L-152.0100502512563,3.098750227720367L-146.48241206030147,6.529572617052611L-140.95477386934672,9.972396295145089L-138.86924205974242,11.265273129779453L-135.42713567839195,13.382448742255031L-129.8994974874372,16.714271080572743L-124.37185929648243,19.92231979137085L-118.84422110552765,22.961582160849385L-113.31658291457289,25.78819721536662L-107.78894472361813,28.36007369357266L-102.26130653266327,30.63749650362742L-96.73366834170851,32.58371313105333L-91.20603015075375,34.16549159813957L-85.67839195979899,35.353641828859786L-80.15075376884423,36.12349264205428L-74.62311557788945,36.455317076606875L-69.09547738693469,36.334699340387836L-63.56783919597993,35.7528373631794L-58.04020100502516,34.70677571454087L-52.51256281407039,33.19956451114033L-46.984924623115546,31.240340873773874L-41.45728643216078,28.844330490293622L-35.92964824120601,26.03276788419788L-30.40201005025125,22.832735066129374L-26.95992226921433,20.658004034767785L-24.874371859296485,19.276919342785327L-19.34673366834172,15.403292160142607L-13.819095477386956,11.25471195057096L-8.291457286432191,6.878455021439502L-2.7638190954774267,2.325679551463109L2.7638190954774267,-2.325679551463109L8.291457286432191,-6.878455021439502L13.819095477386956,-11.25471195057096L16.74977162081417,-13.485687280790145L19.34673366834172,-15.403292160142607L24.874371859296485,-19.276919342785327L30.40201005025125,-22.832735066129374L35.92964824120601,-26.03276788419788L41.45728643216078,-28.844330490293622L46.82046391712058,-31.17526747820299L46.984924623115546,-31.240340873773874L52.51256281407039,-33.19956451114033L58.04020100502516,-34.70677571454087L63.56783919597993,-35.7528373631794L69.09547738693469,-36.334699340387836L74.62311557788945,-36.455317076606875L80.15075376884423,-36.12349264205428L85.67839195979899,-35.353641828859786L91.20603015075375,-34.16549159813957L96.73366834170851,-32.58371313105333L102.26130653266327,-30.63749650362742L107.78894472361813,-28.36007369357266L113.31658291457289,-25.78819721536662L113.84775628248782,-25.526987665197122L118.84422110552765,-22.961582160849385L124.37185929648243,-19.92231979137085L129.8994974874372,-16.714271080572743L135.42713567839195,-13.382448742255031L140.95477386934672,-9.972396295145089L146.48241206030147,-6.529572617052611L152.01005025125625,-3.098750227720394L157.5376884422111,0.27656478294157455L163.06532663316585,3.5546836907920176L168.59296482412063,6.696249969796693L174.1206030150754,9.664711663694437L179.64824120603015,12.426745629099276L185.17587939698493,14.95262873931389L190.7035175879397,17.21655195197045L196.23115577889445,19.196874002160943L201.75879396984922,20.876312373523522L207.28643216080397,22.242070110062013L208.19997390480216,22.436942195859636L212.81407035175883,23.285897948413034L218.3417085427136,24.004092161013943L223.86934673366835,24.397429392566618L229.39698492462313,24.47104063314041L234.9246231155779,24.234227289582616L240.45226130653265,23.70022308169506L245.97989949748742,22.88590619084853L251.5075376884422,21.811466717294962L257.03517587939706,20.500035050467524L262.5628140703517,18.977277217310597L268.09045226130655,17.270963641730283L273.61809045226124,15.410518019539328L279.1457286432161,13.426553185121673L284.26771276601596,11.50520717737429L284.6733668341708,11.35040091723806L290.2010050251256,9.213642602124228L294.50259635018267,7.529009985295587L295.72864321608046,7.047647543928767L301.25628140703515,4.883125488585145L306.78391959799,2.7496996117527646L312.3115577889447,0.6755058200723795L317.83919597989956,-1.313176265588294L323.3668341708542,-3.19225582815086L328.89447236180905,-4.940122671402489L334.42211055276374,-6.537894801512442L339.9497487437186,-7.969618948769586L345.47738693467346,-9.222421947771577L351.0050251256281,-10.286611657695804L356.53266331658295,-11.155726877303133L362.06030150753764,-11.826536480621495L367.5879396984925,-12.298988757594712L373.1155778894472,-12.576112678411057L378.64321608040206,-12.663873500241444L384.1708542713567,-12.570985790785103L389.69849246231155,-12.308687545142304L395.2261306532664,-11.890479612749953L400.7537688442211,-11.331835122037447L406.28140703517596,-10.64988398575739L411.8090452261306,-9.863077884440013L417.33668341708545,-8.990841355143859L421.1351219981536,-8.352333256032184L422.86432160804014,-8.053214754933137L428.391959798995,-7.070494921896321L433.9195979899497,-6.06287932094479L439.44723618090455,-5.050119338300038L444.9748743718592,-4.051188179992154L450.50251256281405,-3.08396853957337L456.0301507537689,-2.164964833513336L461.5577889447236,-1.30904436538821L464.57053031518177,-0.8738274335000651L467.08542713567846,-0.5292112790276668L472.6130653266331,0.16358339584149278L478.14070351758795,0.7605929055144753L483.66834170854264,1.2553850830584308L489.1959798994975,1.6439104181110091L494.7236180904522,1.9245271823851862L500.25125628140705,2.097983601007904L505.7788944723619,2.1673577497835326L511.30653266331655,2.13795653448884L516.8341708542714,2.017175760165605L522.3618090452261,1.8143239162640334L527.8894472361809,1.540412878115808L530.0226528435012,1.4183146692717068L533.4170854271356,1.2079192479579253L534.7197666212912,1.1224946657365586L538.9447236180905,0.830520521753475L544.4723618090452,0.42281066443482884L550,0"></path>
		</g>
		<g class="tlines">
			<path fill="none" stroke="#ff669988" stroke-width="1.5" d="M-550,0L-544.4723618090452,0.09854653864968502L-538.9447236180905,0.05420879715143767L-533.4170854271357,-0.1496268144273457L-527.8894472361809,-0.5196876218012378L-522.3618090452261,-1.046333937694176L-516.8341708542713,-1.7087174841648078L-511.30653266331655,-2.4674009798622767L-505.7788944723618,-3.2710450921996017L-500.25125628140705,-4.053921648686836L-494.72361809045225,-4.742937377242419L-489.1959798994975,-5.260401089332151L-483.66834170854275,-5.524080469209218L-478.14070351758795,-5.467156652698179L-472.6130653266331,-5.0331558005529295L-467.08542713567834,-4.19000896191518L-461.5577889447236,-2.93601765068503L-456.03015075376885,-1.2942341832387365L-450.50251256281405,0.6718190411443712L-444.9748743718593,2.8846224131099207L-439.44723618090455,5.2367484086529075L-433.91959798994975,7.621254499843064L-428.391959798995,9.92651983158373L-422.86432160804014,12.067044069395003L-417.33668341708545,13.969799386829406L-411.8090452261306,15.585541370453292L-406.28140703517585,16.897266553142874L-400.7537688442211,17.904674704016866L-395.22613065326635,18.62182595898433L-389.69849246231155,19.0696684958671L-384.1708542713568,19.2722424748825L-378.64321608040206,19.242051335552752L-373.11557788944725,18.980269832198527L-367.58793969849245,18.487019067094813L-362.0603015075377,17.765055593880767L-356.5326633165829,16.79566613856318L-351.0050251256281,15.588433330739784L-345.47738693467335,14.130334754724949L-339.9497487437186,12.439077144677334L-334.42211055276385,10.527618737030473L-328.89447236180905,8.419735605926466L-323.36683417085425,6.151503137795168L-317.8391959798995,3.760855576399732L-312.31155778894475,1.2971788952265195L-306.78391959798995,-1.1800654460064188L-301.2562814070352,-3.604280160246338L-295.7286432160804,-5.9066845962414805L-290.2010050251256,-8.01473103188828L-284.67336683417085,-9.85470459417832L-279.1457286432161,-11.37138941692896L-273.6180904522613,-12.5439205858589L-268.0904522613065,-13.350510389043023L-262.56281407035175,-13.833304036921009L-257.035175879397,-14.057017569936875L-251.50753768844223,-14.115907553234557L-245.97989949748742,-14.109205183290806L-240.45226130653265,-14.15666293641595L-234.9246231155779,-14.354114878691885L-229.39698492462313,-14.760592374431681L-223.86934673366835,-15.392773186947474L-218.34170854271355,-16.224344316247354L-212.8140703517588,-17.18049233890241L-207.28643216080403,-18.15279061800832L-201.75879396984925,-18.97866517302295L-196.23115577889445,-19.523428312973632L-190.7035175879397,-19.649748098540808L-185.17587939698493,-19.239563822383552L-179.64824120603015,-18.243917470082344L-174.1206030150754,-16.62396473837904L-168.59296482412057,-14.438197843438772L-163.06532663316582,-11.742214084337759L-157.53768844221105,-8.664486451361759L-152.0100502512563,-5.345718180716432L-146.48241206030147,-1.9338362271047405L-140.95477386934672,1.4222944030385865L-135.42713567839195,4.581055785834998L-129.8994974874372,7.441976562670074L-124.37185929648243,9.908776964221312L-118.84422110552765,11.992170529518328L-113.31658291457289,13.694463521043849L-107.78894472361813,15.08977524861533L-102.26130653266327,16.325356604772846L-96.73366834170851,17.555298763299692L-91.20603015075375,18.963451373483167L-85.67839195979899,20.721156055693218L-80.15075376884423,22.960969744141426L-74.62311557788945,25.728667993986086L-69.09547738693469,28.979077190040872L-63.56783919597993,32.60066329989711L-58.04020100502516,36.3246642021469L-52.51256281407039,39.81347632237872L-46.984924623115546,42.66949191922903L-41.45728643216078,44.455526756003636L-35.92964824120601,44.766271952446395L-30.40201005025125,43.26167544665481L-24.874371859296485,39.67660067426265L-19.34673366834172,33.89663143405016L-13.819095477386956,25.920350389465032L-8.291457286432191,15.882113143011782L-2.7638190954774267,4.072162664080803L2.7638190954774267,-9.069079732607799L8.291457286432191,-22.636375174697033L13.819095477386956,-36.13167613286115L19.34673366834172,-49.05828040190731L24.874371859296485,-60.98077154279083L30.40201005025125,-71.58248269846402L35.92964824120601,-80.57253476049084L41.45728643216078,-87.79223159691455L46.984924623115546,-93.10727973858579L52.51256281407039,-96.48751685908054L58.04020100502516,-97.92267093099044L63.56783919597993,-97.48323988244853L69.09547738693469,-95.26655133457376L74.62311557788945,-91.40186860724924L80.15075376884423,-86.05737000547816L85.67839195979899,-79.45292039869031L91.20603015075375,-71.82295620066809L96.73366834170851,-63.463410916051494L102.26130653266327,-54.6738799404185L107.78894472361813,-45.7873670884798L113.31658291457289,-37.12751954176299L118.84422110552765,-28.981084923071982L124.37185929648243,-21.626377248235926L129.8994974874372,-15.259379652051583L135.42713567839195,-10.014531650645667L140.95477386934672,-5.97200650393727L146.48241206030147,-3.1037528509344874L152.01005025125625,-1.348945888769286L157.5376884422111,-0.5497893062431992L163.06532663316585,-0.5199623929020133L168.59296482412063,-1.0388135935435956L174.1206030150754,-1.8494596254097206L179.64824120603015,-2.71674613926543L185.17587939698493,-3.4071516934125716L190.7035175879397,-3.753944317619865L196.23115577889445,-3.61396942051692L201.75879396984922,-2.923515255612819L207.28643216080397,-1.6642100895870868L212.81407035175883,0.09601331771782305L218.3417085427136,2.2691879832390036L223.86934673366835,4.699822973087565L229.39698492462313,7.226174982474343L234.9246231155779,9.678012260607254L240.45226130653265,11.892676469610803L245.97989949748742,13.719954570081196L251.5075376884422,15.059642480234658L257.03517587939706,15.827824772939598L262.5628140703517,15.99334221229401L268.09045226130655,15.567952295621208L273.61809045226124,14.607150599799718L279.1457286432161,13.198554083564165L284.6733668341708,11.459032934211363L290.2010050251256,9.535896086638152L295.72864321608046,7.5909343129498374L301.25628140703515,5.752429756932551L306.78391959799,4.171717180962223L312.3115577889447,2.957755449433386L317.83919597989956,2.1637650607927057L323.3668341708542,1.8258768077297223L328.89447236180905,1.9139169124492972L334.42211055276374,2.371588852136674L339.9497487437186,3.0968866168237525L345.47738693467346,3.9637692009336742L351.0050251256281,4.8423349489871L356.53266331658295,5.60714369210421L362.06030150753764,6.1428658549669946L367.5879396984925,6.372417351504806L373.1155778894472,6.249557554253094L378.64321608040206,5.764836004985712L384.1708542713567,4.954148514450358L389.69849246231155,3.8811226236732033L395.2261306532664,2.634635653511517L400.7537688442211,1.3174580909561167L406.28140703517596,0.03178358236433496L411.8090452261306,-1.1301204302119294L417.33668341708545,-2.095373935627591L422.86432160804014,-2.817756587174048L428.391959798995,-3.2810367944356846L433.9195979899497,-3.4927439483367544L439.44723618090455,-3.486655419554157L444.9748743718592,-3.3046712214743854L450.50251256281405,-3.0023114343302857L456.0301507537689,-2.634930561605939L461.5577889447236,-2.245580912931522L467.08542713567846,-1.86717232882324L472.6130653266331,-1.5233543665368148L478.14070351758795,-1.220918977672763L483.66834170854264,-0.9595298259182037L489.1959798994975,-0.7305518618675737L494.7236180904522,-0.5275540512553678L500.25125628140705,-0.33885152655219014L505.7788944723619,-0.15854076031354306L511.30653266331655,0.014393768199412234L516.8341708542714,0.1724945592343511L522.3618090452261,0.30472157866198557L527.8894472361809,0.3959994538546553L533.4170854271356,0.42778448460676477L538.9447236180905,0.38173475259742823L544.4723618090452,0.24217232011957468L550,0"></path>
			<path fill="none" stroke="#ff669988" stroke-width="1.5" d="M-550,0L-544.4723618090452,-0.17922944802658994L-538.9447236180905,-0.40057472677505906L-533.4170854271357,-0.6941257100545547L-527.8894472361809,-1.0897672063771617L-522.3618090452261,-1.6096596059871493L-516.8341708542713,-2.263185625672454L-511.30653266331655,-3.0418693061156588L-505.7788944723618,-3.917270878816766L-500.25125628140705,-4.833449921152933L-494.72361809045225,-5.719477323915081L-489.1959798994975,-6.482658952793788L-483.66834170854275,-7.03072331479121L-478.14070351758795,-7.267889329004632L-472.6130653266331,-7.116718692125982L-467.08542713567834,-6.523306602576533L-461.5577889447236,-5.465271318997852L-456.03015075376885,-3.952310501085174L-450.50251256281405,-2.0329920387790166L-444.9748743718593,0.20495058943432753L-439.44723618090455,2.6630899430439396L-433.91959798994975,5.211116543846222L-428.391959798995,7.725432575669396L-422.86432160804014,10.081156801400404L-417.33668341708545,12.172030643729935L-411.8090452261306,13.9122105579054L-406.28140703517585,15.247733579681874L-400.7537688442211,16.145436929361182L-395.22613065326635,16.610378673051176L-389.69849246231155,16.660821641346946L-384.1708542713568,16.344265299814197L-378.64321608040206,15.724282313211022L-373.11557788944725,14.861949541579033L-367.58793969849245,13.838501410890492L-362.0603015075377,12.719487684975858L-356.5326633165829,11.574259829711115L-351.0050251256281,10.456637575218227L-345.47738693467335,9.41700943297533L-339.9497487437186,8.489918036418802L-334.42211055276385,7.696386020683319L-328.89447236180905,7.057003735132291L-323.36683417085425,6.572436214738579L-317.8391959798995,6.238475424277751L-312.31155778894475,6.043253572583684L-306.78391959798995,5.962116763168458L-301.2562814070352,5.970428540779839L-295.7286432160804,6.004036730665975L-290.2010050251256,5.998576091448417L-284.67336683417085,5.861331928322558L-279.1457286432161,5.492610626328759L-273.6180904522613,4.773688590343233L-268.0904522613065,3.625854379666627L-262.56281407035175,1.9348697981004044L-257.035175879397,-0.32804336380229693L-251.50753768844223,-3.1780778718300287L-245.97989949748742,-6.57200719246541L-240.45226130653265,-10.417037043820136L-234.9246231155779,-14.57070033376409L-229.39698492462313,-18.858786749048555L-223.86934673366835,-23.074058977154635L-218.34170854271355,-27.00334183952303L-212.8140703517588,-30.424455720652915L-207.28643216080403,-33.136150637818545L-201.75879396984925,-34.94286400528L-196.23115577889445,-35.679578131955545L-190.7035175879397,-35.21195606484174L-185.17587939698493,-33.452069146446874L-179.64824120603015,-30.3788360995321L-174.1206030150754,-25.9940599644653L-168.59296482412057,-20.405074236351112L-163.06532663316582,-13.744533333030233L-157.53768844221105,-6.230861967030501L-152.0100502512563,1.8829572824004912L-146.48241206030147,10.323536261571116L-140.95477386934672,18.783606985889723L-135.42713567839195,27.003872477137833L-129.8994974874372,34.72101044281806L-124.37185929648243,41.780220577876875L-118.84422110552765,48.06275110444071L-113.31658291457289,53.5321816708391L-107.78894472361813,58.222250430681285L-102.26130653266327,62.20281054944099L-96.73366834170851,65.59480756933947L-91.20603015075375,68.53684451213434L-85.67839195979899,71.13894670539268L-80.15075376884423,73.45561238982758L-74.62311557788945,75.5080206335197L-69.09547738693469,77.2040863731917L-63.56783919597993,78.39677798502998L-58.04020100502516,78.85069753329809L-52.51256281407039,78.261610682103L-46.984924623115546,76.34591854878799L-41.45728643216078,72.77252986652641L-35.92964824120601,67.34444521910164L-30.40201005025125,59.875512435518395L-24.874371859296485,50.38114661122694L-19.34673366834172,38.97323979987705L-13.819095477386956,25.90074209581585L-8.291457286432191,11.567003494861485L-2.7638190954774267,-3.5645301538506398L2.7638190954774267,-18.804274392880405L8.291457286432191,-33.1600657904899L13.819095477386956,-46.255318783484775L19.34673366834172,-57.751786090692114L24.874371859296485,-67.43084095808297L30.40201005025125,-75.19540447569638L35.92964824120601,-81.00170579391514L41.45728643216078,-84.89670759749929L46.984924623115546,-86.97106140172288L52.51256281407039,-87.33990276134782L58.04020100502516,-86.10271027177531L63.56783919597993,-83.3938692781958L69.09547738693469,-79.35564731319035L74.62311557788945,-74.12798179981641L80.15075376884423,-67.90207288112653L85.67839195979899,-60.89304238813591L91.20603015075375,-53.39333129876759L96.73366834170851,-45.69043550677891L102.26130653266327,-38.13860222334054L107.78894472361813,-31.075767979678893L113.31658291457289,-24.82565033484177L118.84422110552765,-19.624098473718256L124.37185929648243,-15.677488590341927L129.8994974874372,-13.034344335091166L135.42713567839195,-11.656360032744224L140.95477386934672,-11.397590504508974L146.48241206030147,-12.058053657813302L152.01005025125625,-13.31529799192517L157.5376884422111,-14.879769851903141L163.06532663316585,-16.450746340956158L168.59296482412063,-17.78346125099125L174.1206030150754,-18.689049360319924L179.64824120603015,-19.066367415256874L185.17587939698493,-18.87795149392657L190.7035175879397,-18.171683728578426L196.23115577889445,-17.021759028106647L201.75879396984922,-15.54394246137812L207.28643216080397,-13.850023131236657L212.81407035175883,-12.03341871388834L218.3417085427136,-10.161201926542926L223.86934673366835,-8.264284620135117L229.39698492462313,-6.335001507572826L234.9246231155779,-4.363179162729459L240.45226130653265,-2.315812244845533L245.97989949748742,-0.1847553016311186L251.5075376884422,2.018797929690007L257.03517587939706,4.253543900604445L262.5628140703517,6.433961098075441L268.09045226130655,8.474680499171019L273.61809045226124,10.246606094660748L279.1457286432161,11.638020564593475L284.6733668341708,12.551360077027553L290.2010050251256,12.915034612689348L295.72864321608046,12.689434096816724L301.25628140703515,11.907853907380623L306.78391959799,10.608747398720157L312.3115577889447,8.898794497331599L317.83919597989956,6.895559678690497L323.3668341708542,4.736243147859479L328.89447236180905,2.5599422927974396L334.42211055276374,0.5001443032738817L339.9497487437186,-1.339134418638801L345.47738693467346,-2.862735161029582L351.0050251256281,-4.004127128047985L356.53266331658295,-4.726986656749968L362.06030150753764,-5.0267180159334135L367.5879396984925,-4.914752805936828L373.1155778894472,-4.4387474957622395L378.64321608040206,-3.6620988173496074L384.1708542713567,-2.6647129300659342L389.69849246231155,-1.541488141077863L395.2261306532664,-0.39327057658407655L400.7537688442211,0.6845261612379947L406.28140703517596,1.6074495048893476L411.8090452261306,2.3056363656202157L417.33668341708545,2.7240475679797918L422.86432160804014,2.8449417253843863L428.391959798995,2.6692234315620875L433.9195979899497,2.2158226453054573L439.44723618090455,1.530856242345606L444.9748743718592,0.6779765888138657L450.50251256281405,-0.27630033349756794L456.0301507537689,-1.257107101899913L461.5577889447236,-2.188096710072831L467.08542713567846,-3.00471979968871L472.6130653266331,-3.646096419057172L478.14070351758795,-4.075982475911583L483.66834170854264,-4.269648970822094L489.1959798994975,-4.225427998351244L494.7236180904522,-3.9619136938521176L500.25125628140705,-3.5179783402339497L505.7788944723619,-2.9420832109228603L511.30653266331655,-2.2959688957971385L516.8341708542714,-1.642671058206192L522.3618090452261,-1.0436447477597386L527.8894472361809,-0.5472713829254776L533.4170854271356,-0.18900789901683537L538.9447236180905,0.01520729470390733L544.4723618090452,0.07035909666103275L550,0"></path>
			<path fill="none" stroke="#ff669988" stroke-width="1.5" d="M-550,0L-544.4723618090452,-0.045247123215887225L-538.9447236180905,-0.14537074062796138L-533.4170854271357,-0.29793718975859285L-527.8894472361809,-0.5077039082561622L-522.3618090452261,-0.7873345223575562L-516.8341708542713,-1.1579787078227626L-511.30653266331655,-1.642028923235771L-505.7788944723618,-2.256044160571754L-500.25125628140705,-3.006990215679865L-494.72361809045225,-3.8801224265454795L-489.1959798994975,-4.836702166462746L-483.66834170854275,-5.81067572043499L-478.14070351758795,-6.711142480956474L-472.6130653266331,-7.432593404338125L-467.08542713567834,-7.8549476524765725L-461.5577889447236,-7.869291348462143L-456.03015075376885,-7.37598378208732L-450.50251256281405,-6.30967558061075L-444.9748743718593,-4.645145540421464L-439.44723618090455,-2.390921236772736L-433.91959798994975,0.3940389975635067L-428.391959798995,3.6118184575723804L-422.86432160804014,7.128878773152033L-417.33668341708545,10.796170621701963L-411.8090452261306,14.438202094196566L-406.28140703517585,17.897115062623623L-400.7537688442211,21.00414742540022L-395.22613065326635,23.62148212487005L-389.69849246231155,25.63845197561758L-384.1708542713568,26.965929460683835L-378.64321608040206,27.55011718184408L-373.11557788944725,27.371590356765836L-367.58793969849245,26.439571528862416L-362.0603015075377,24.77777121710415L-356.5326633165829,22.449464639999245L-351.0050251256281,19.510983594580917L-345.47738693467335,16.048826515779275L-339.9497487437186,12.147444327355773L-334.42211055276385,7.88718751449698L-328.89447236180905,3.3645261686297254L-323.36683417085425,-1.3478605270717912L-317.8391959798995,-6.160809188157258L-312.31155778894475,-10.997072209717397L-306.78391959798995,-15.772964226999452L-301.2562814070352,-20.413606794495557L-295.7286432160804,-24.82731963020758L-290.2010050251256,-28.941413521829087L-284.67336683417085,-32.66938881937417L-279.1457286432161,-35.93961292919676L-273.6180904522613,-38.68830398983223L-268.0904522613065,-40.86619784425457L-262.56281407035175,-42.44586327786964L-257.035175879397,-43.42969334031554L-251.50753768844223,-43.826429922712876L-245.97989949748742,-43.70085712284058L-240.45226130653265,-43.1160066209387L-234.9246231155779,-42.15771074933227L-229.39698492462313,-40.92272465827591L-223.86934673366835,-39.48705153171303L-218.34170854271355,-37.938466071040004L-212.8140703517588,-36.306658773746705L-207.28643216080403,-34.62495702747823L-201.75879396984925,-32.889847055778496L-196.23115577889445,-31.065770763796294L-190.7035175879397,-29.086053689139693L-185.17587939698493,-26.885395580011945L-179.64824120603015,-24.387833063959146L-174.1206030150754,-21.49442096302427L-168.59296482412057,-18.12448180965913L-163.06532663316582,-14.219029197267917L-157.53768844221105,-9.703223698978544L-152.0100502512563,-4.514364754834934L-146.48241206030147,1.3568577776841002L-140.95477386934672,7.926610576153307L-135.42713567839195,15.181015066814197L-129.8994974874372,23.021306717277817L-124.37185929648243,31.355473266560473L-118.84422110552765,39.98745037580522L-113.31658291457289,48.718410355097035L-107.78894472361813,57.29001754444513L-102.26130653266327,65.44921812855205L-96.73366834170851,72.91432472567165L-91.20603015075375,79.47042322917625L-85.67839195979899,84.9298107727861L-80.15075376884423,89.16183692565517L-74.62311557788945,92.0759676662448L-69.09547738693469,93.66535183418813L-63.56783919597993,93.95435018259047L-58.04020100502516,92.99749582192685L-52.51256281407039,90.82830329897838L-46.984924623115546,87.50901053780188L-41.45728643216078,83.05105972331907L-35.92964824120601,77.45411917466818L-30.40201005025125,70.70181880730809L-24.874371859296485,62.713701204363744L-19.34673366834172,53.433522610133345L-13.819095477386956,42.81812261907636L-8.291457286432191,30.84856863862039L-2.7638190954774267,17.557860587250808L2.7638190954774267,3.047940579623482L8.291457286432191,-12.011610758652493L13.819095477386956,-27.040331913516862L19.34673366834172,-41.5929171403575L24.874371859296485,-55.13429335548549L30.40201005025125,-67.13345270484864L35.92964824120601,-77.092046051251L41.45728643216078,-84.57770329519946L46.984924623115546,-89.25276509305039L52.51256281407039,-90.99704500845267L58.04020100502516,-89.83344243069588L63.56783919597993,-85.98984953282793L69.09547738693469,-79.82927099138344L74.62311557788945,-71.87322527443376L80.15075376884423,-62.7071199331726L85.67839195979899,-52.95275637591318L91.20603015075375,-43.18427698725596L96.73366834170851,-33.9199525092734L102.26130653266327,-25.56307039858917L107.78894472361813,-18.40777484438231L113.31658291457289,-12.603316389567478L118.84422110552765,-8.165379011907296L124.37185929648243,-5.061672176754441L129.8994974874372,-3.1128122234490836L135.42713567839195,-2.137932905043961L140.95477386934672,-1.9438561057094934L146.48241206030147,-2.2911257512280088L152.01005025125625,-3.006585550708134L157.5376884422111,-3.949064946015376L163.06532663316585,-4.9706879255707115L168.59296482412063,-6.025857305444363L174.1206030150754,-7.020205386617988L179.64824120603015,-7.917359624855115L185.17587939698493,-8.705815005528128L190.7035175879397,-9.313398235160314L196.23115577889445,-9.714298396287852L201.75879396984922,-9.838908732587994L207.28643216080397,-9.639725796115064L212.81407035175883,-9.071466922866385L218.3417085427136,-8.10034678420429L223.86934673366835,-6.745377501062805L229.39698492462313,-5.009548411906354L234.9246231155779,-2.9659163738162424L240.45226130653265,-0.6988402016122949L245.97989949748742,1.6961975932814692L251.5075376884422,4.11917748526775L257.03517587939706,6.478709525079471L262.5628140703517,8.691822150810584L268.09045226130655,10.713033973685008L273.61809045226124,12.506677068815854L279.1457286432161,14.065539299658267L284.6733668341708,15.387909229183354L290.2010050251256,16.499337924569808L295.72864321608046,17.4011089077117L301.25628140703515,18.120790842748306L306.78391959799,18.66464860268226L312.3115577889447,19.02848802957684L317.83919597989956,19.213093115834205L323.3668341708542,19.201690352598902L328.89447236180905,18.983262570922857L334.42211055276374,18.54274983724385L339.9497487437186,17.874190345982118L345.47738693467346,16.977616001357212L351.0050251256281,15.861847329862643L356.53266331658295,14.55644750990502L362.06030150753764,13.07930789183354L367.5879396984925,11.475060966179093L373.1155778894472,9.790332096934746L378.64321608040206,8.069423119989114L384.1708542713567,6.352927192211173L389.69849246231155,4.679963486030221L395.2261306532664,3.073618921662164L400.7537688442211,1.5552604904476397L406.28140703517596,0.13416737019650696L411.8090452261306,-1.1826431475628398L417.33668341708545,-2.3968852766013136L422.86432160804014,-3.5064003102442065L428.391959798995,-4.50554959521374L433.9195979899497,-5.380958603451454L439.44723618090455,-6.122431070133426L444.9748743718592,-6.702551628381626L450.50251256281405,-7.102729893737099L456.0301507537689,-7.306964442090656L461.5577889447236,-7.2988394867559645L467.08542713567846,-7.075356184040019L472.6130653266331,-6.645713081561672L478.14070351758795,-6.03058017957251L483.66834170854264,-5.25852996654007L489.1959798994975,-4.374423687696986L494.7236180904522,-3.4266084855145613L500.25125628140705,-2.4658713346957724L505.7788944723619,-1.5494695975667145L511.30653266331655,-0.7268611538453277L516.8341708542714,-0.043769279831690835L522.3618090452261,0.46178265515612615L527.8894472361809,0.7646733269287541L533.4170854271356,0.8540683576054706L538.9447236180905,0.7371672339012466L544.4723618090452,0.4380545414318901L550,0"></path>
			<path fill="none" stroke="#ff669988" stroke-width="1.5" d="M-550,0L-544.4723618090452,-0.9638932068824101L-538.9447236180905,-1.881733186490097L-533.4170854271357,-2.735945594164658L-527.8894472361809,-3.5186700231403094L-522.3618090452261,-4.229298300758822L-516.8341708542713,-4.871219845138368L-511.30653266331655,-5.444831576668743L-505.7788944723618,-5.944006753937891L-500.25125628140705,-6.352723614517724L-494.72361809045225,-6.639022746358004L-489.1959798994975,-6.76145172718691L-483.66834170854275,-6.6701062422120625L-478.14070351758795,-6.313540958800828L-472.6130653266331,-5.6445623405398395L-467.08542713567834,-4.6312866465311355L-461.5577889447236,-3.258090687328519L-456.03015075376885,-1.5389492769849882L-450.50251256281405,0.49322343228950405L-444.9748743718593,2.7787089964396814L-439.44723618090455,5.239752493105182L-433.91959798994975,7.784279041300768L-428.391959798995,10.320024525319061L-422.86432160804014,12.752783176814562L-417.33668341708545,14.99885250828491L-411.8090452261306,16.985601378030346L-406.28140703517585,18.664152032917755L-400.7537688442211,19.992077411628923L-395.22613065326635,20.95791422257668L-389.69849246231155,21.5504846999396L-384.1708542713568,21.779894338961142L-378.64321608040206,21.648026067234312L-373.11557788944725,21.1701623939424L-367.58793969849245,20.35537391746257L-362.0603015075377,19.214180373294163L-356.5326633165829,17.756828916430273L-351.0050251256281,15.991406258789956L-345.47738693467335,13.942133719691814L-339.9497487437186,11.64268456161611L-334.42211055276385,9.153340511054743L-328.89447236180905,6.550229309598095L-323.36683417085425,3.9269135200633776L-317.8391959798995,1.3909580789875406L-312.31155778894475,-0.9410019401276518L-306.78391959798995,-2.9646651198548675L-301.2562814070352,-4.601627158029113L-295.7286432160804,-5.81261499789165L-290.2010050251256,-6.595231858795505L-284.67336683417085,-6.993413991934536L-279.1457286432161,-7.110496509870981L-273.6180904522613,-7.074657846824795L-268.0904522613065,-7.060332106103784L-262.56281407035175,-7.238741853128017L-257.035175879397,-7.787577246769034L-251.50753768844223,-8.854856107040263L-245.97989949748742,-10.535515334004652L-240.45226130653265,-12.863934642845084L-234.9246231155779,-15.807416824092366L-229.39698492462313,-19.240384482659817L-223.86934673366835,-22.98002053220662L-218.34170854271355,-26.790537613514864L-212.8140703517588,-30.37147527278532L-207.28643216080403,-33.4416032726525L-201.75879396984925,-35.70852641343322L-196.23115577889445,-36.95245370496799L-190.7035175879397,-36.98388083309443L-185.17587939698493,-35.71659697259415L-179.64824120603015,-33.12018309560572L-174.1206030150754,-29.286437583564208L-168.59296482412057,-24.316456538134325L-163.06532663316582,-18.42864298681183L-157.53768844221105,-11.820350267265123L-152.0100502512563,-4.717807617213359L-146.48241206030147,2.6380379662206503L-140.95477386934672,10.015541281401637L-135.42713567839195,17.25163385258584L-129.8994974874372,24.16477916371232L-124.37185929648243,30.633338761281884L-118.84422110552765,36.547597050747484L-113.31658291457289,41.88636596950561L-107.78894472361813,46.61703775698096L-102.26130653266327,50.73480131786988L-96.73366834170851,54.31386202055653L-91.20603015075375,57.401788256547874L-85.67839195979899,60.06128767822052L-80.15075376884423,62.37819177833189L-74.62311557788945,64.37263516986657L-69.09547738693469,66.05719153103944L-63.56783919597993,67.41711887550582L-58.04020100502516,68.33782416132163L-52.51256281407039,68.69906868173562L-46.984924623115546,68.28975590973042L-41.45728643216078,66.92204383781142L-35.92964824120601,64.33556267671266L-30.40201005025125,60.34619947584548L-24.874371859296485,54.764687696312855L-19.34673366834172,47.461550941118105L-13.819095477386956,38.40430093817364L-8.291457286432191,27.582139423953166L-2.7638190954774267,15.141364417977881L2.7638190954774267,1.262389291318936L8.291457286432191,-13.322461364691408L13.819095477386956,-28.066983002949865L19.34673366834172,-42.497763445366736L24.874371859296485,-56.167761413387346L30.40201005025125,-68.57850255893001L35.92964824120601,-79.25360380365066L41.45728643216078,-87.79629063396283L46.984924623115546,-93.80581835524448L52.51256281407039,-97.0840713785307L58.04020100502516,-97.44978636035668L63.56783919597993,-94.98649888289992L69.09547738693469,-89.84616808114755L74.62311557788945,-82.44308541025022L80.15075376884423,-73.24487325285361L85.67839195979899,-62.884617112031655L91.20603015075375,-52.0416475962253L96.73366834170851,-41.377886691687024L102.26130653266327,-31.550378096882504L107.78894472361813,-23.075888681495055L113.31658291457289,-16.35329783644655L118.84422110552765,-11.58503462505852L124.37185929648243,-8.834626816583002L129.8994974874372,-7.954381076639745L135.42713567839195,-8.655033945959325L140.95477386934672,-10.577148359610232L146.48241206030147,-13.264887153544446L152.01005025125625,-16.285167221434182L157.5376884422111,-19.20224866394829L163.06532663316585,-21.66107528323847L168.59296482412063,-23.39338166528241L174.1206030150754,-24.239224937381266L179.64824120603015,-24.10499961616264L185.17587939698493,-22.988022997329438L190.7035175879397,-20.967143457543614L196.23115577889445,-18.120693405834285L201.75879396984922,-14.579075621593612L207.28643216080397,-10.456165222003854L212.81407035175883,-5.897584936807192L218.3417085427136,-1.02814205237153L223.86934673366835,4.026085379503248L229.39698492462313,9.107530241383124L234.9246231155779,14.065535219979271L240.45226130653265,18.71759040439069L245.97989949748742,22.869810612394346L251.5075376884422,26.32944437937955L257.03517587939706,28.910226616875278L262.5628140703517,30.459211654482765L268.09045226130655,30.893306795685728L273.61809045226124,30.15114702006712L279.1457286432161,28.297885971345764L284.6733668341708,25.438617006438328L290.2010050251256,21.757879913816296L295.72864321608046,17.503555402649067L301.25628140703515,12.945245202398361L306.78391959799,8.350865208232793L312.3115577889447,3.988400834183388L317.83919597989956,0.06575286986428314L323.3668341708542,-3.256654906112106L328.89447236180905,-5.9029985154215625L334.42211055276374,-7.84146978499107L339.9497487437186,-9.128803937335881L345.47738693467346,-9.829375030591455L351.0050251256281,-10.085668605358261L356.53266331658295,-10.020891360722999L362.06030150753764,-9.760267601382196L367.5879396984925,-9.426648490483467L373.1155778894472,-9.103663368081868L378.64321608040206,-8.859606848565369L384.1708542713567,-8.714212417482722L389.69849246231155,-8.671034616606697L395.2261306532664,-8.70438139714918L400.7537688442211,-8.778531547142725L406.28140703517596,-8.841352566396413L411.8090452261306,-8.84603020571583L417.33668341708545,-8.752964611683042L422.86432160804014,-8.521613347271233L428.391959798995,-8.140557080732128L433.9195979899497,-7.608230964646599L439.44723618090455,-6.938924892144454L444.9748743718592,-6.163276305430476L450.50251256281405,-5.315957601656129L456.0301507537689,-4.438674612237257L461.5577889447236,-3.5733643709499496L467.08542713567846,-2.756006011527507L472.6130653266331,-2.014033487973399L478.14070351758795,-1.3679613975420966L483.66834170854264,-0.833608331377485L489.1959798994975,-0.4165540061551516L494.7236180904522,-0.11645657329581025L500.25125628140705,0.07267648147710773L505.7788944723619,0.1600707728184434L511.30653266331655,0.16333760531585137L516.8341708542714,0.10263809774443614L522.3618090452261,0.005655246753384005L527.8894472361809,-0.09782041522159483L533.4170854271356,-0.17681386460018134L538.9447236180905,-0.20204764692125696L544.4723618090452,-0.14889649548770068L550,0"></path>
			<path fill="none" stroke="#ff669988" stroke-width="1.5" d="M-550,0L-544.4723618090452,0.11582119232682297L-538.9447236180905,0.11675286367527783L-533.4170854271357,-0.04603396502945387L-527.8894472361809,-0.4048490892367515L-522.3618090452261,-0.9712613398623361L-516.8341708542713,-1.732809051483478L-511.30653266331655,-2.6523507557704953L-505.7788944723618,-3.6702286519769247L-500.25125628140705,-4.71188274095494L-494.72361809045225,-5.690302752949365L-489.1959798994975,-6.515626545217236L-483.66834170854275,-7.099276855971174L-478.14070351758795,-7.367658744489864L-472.6130653266331,-7.261676195107658L-467.08542713567834,-6.744138925879579L-461.5577889447236,-5.8038339846088665L-456.03015075376885,-4.450738655350735L-450.50251256281405,-2.7280143016981953L-444.9748743718593,-0.6853054298626036L-439.44723618090455,1.5977674948158818L-433.91959798994975,4.041630622903554L-428.391959798995,6.55698928059423L-422.86432160804014,9.061778750896163L-417.33668341708545,11.478823116836086L-411.8090452261306,13.740021051369686L-406.28140703517585,15.791458093610737L-400.7537688442211,17.590768732639418L-395.22613065326635,19.09400793067353L-389.69849246231155,20.272585802931665L-384.1708542713568,21.08427174975935L-378.64321608040206,21.498126225212484L-373.11557788944725,21.477052638666564L-367.58793969849245,20.98628036560759L-362.0603015075377,20.004068688141974L-356.5326633165829,18.521703047147593L-351.0050251256281,16.553858793339888L-345.47738693467335,14.138274381922075L-339.9497487437186,11.34407096936855L-334.42211055276385,8.249916019574059L-328.89447236180905,4.971737112771529L-323.36683417085425,1.614495417866574L-317.8391959798995,-1.715709875576302L-312.31155778894475,-4.93019443250692L-306.78391959798995,-7.962303686700921L-301.2562814070352,-10.782701974876183L-295.7286432160804,-13.398210529785606L-290.2010050251256,-15.830041628085722L-284.67336683417085,-18.154308602445457L-279.1457286432161,-20.43542914714343L-273.6180904522613,-22.746107524641005L-268.0904522613065,-25.138859629948143L-262.56281407035175,-27.641198677757895L-257.035175879397,-30.23530743478052L-251.50753768844223,-32.84245954088215L-245.97989949748742,-35.351278039314764L-240.45226130653265,-37.597889969816L-234.9246231155779,-39.41083902283185L-229.39698492462313,-40.61533927329837L-223.86934673366835,-41.068158157049204L-218.34170854271355,-40.687469995615885L-212.8140703517588,-39.435941945573916L-207.28643216080403,-37.37422982702636L-201.75879396984925,-34.605146392688134L-196.23115577889445,-31.290912133244724L-190.7035175879397,-27.601092583502805L-185.17587939698493,-23.72016158922092L-179.64824120603015,-19.791602846266482L-174.1206030150754,-15.900289722813062L-168.59296482412057,-12.072903905285058L-163.06532663316582,-8.260678053619543L-157.53768844221105,-4.369216334541786L-152.0100502512563,-0.2479736290506882L-146.48241206030147,4.255055139030664L-140.95477386934672,9.313437928414132L-135.42713567839195,15.044041356484527L-129.8994974874372,21.517942079262884L-124.37185929648243,28.748442958496806L-118.84422110552765,36.65101175814594L-113.31658291457289,45.064111967606266L-107.78894472361813,53.743698841087806L-102.26130653266327,62.38335915140443L-96.73366834170851,70.63009779900435L-91.20603015075375,78.13675812887143L-85.67839195979899,84.53268471877668L-80.15075376884423,89.57277271654704L-74.62311557788945,93.01842546103597L-69.09547738693469,94.78698005200327L-63.56783919597993,94.86243111883645L-58.04020100502516,93.33627993324455L-52.51256281407039,90.36425100534099L-46.984924623115546,86.15090791056981L-41.45728643216078,80.86427014030048L-35.92964824120601,74.6356011392335L-30.40201005025125,67.56062641743047L-24.874371859296485,59.58547848541464L-19.34673366834172,50.650547441834576L-13.819095477386956,40.602678943352466L-8.291457286432191,29.306749840103244L-2.7638190954774267,16.67723719109257L2.7638190954774267,2.679033739708646L8.291457286432191,-12.103524167517872L13.819095477386956,-27.171185903072285L19.34673366834172,-42.0629706489417L24.874371859296485,-56.247428014742965L30.40201005025125,-69.1231863086159L35.92964824120601,-80.12834589412842L41.45728643216078,-88.77178254939369L46.984924623115546,-94.66271921180491L52.51256281407039,-97.59104592398678L58.04020100502516,-97.48464669673444L63.56783919597993,-94.47967137445991L69.09547738693469,-88.84598856552397L74.62311557788945,-80.98695598555697L80.15075376884423,-71.3882093149046L85.67839195979899,-60.54446957091005L91.20603015075375,-49.025652207888285L96.73366834170851,-37.31192664346208L102.26130653266327,-25.857253480967955L107.78894472361813,-15.06300936073329L113.31658291457289,-5.2624238835257175L118.84422110552765,3.2875428530885147L124.37185929648243,10.41119414475156L129.8994974874372,15.979760943813439L135.42713567839195,19.921605418016462L140.95477386934672,22.242342721256502L146.48241206030147,22.98667295408079L152.01005025125625,22.277891437392437L157.5376884422111,20.26786126602985L163.06532663316585,17.18751405305784L168.59296482412063,13.272689411538297L174.1206030150754,8.822135987133695L179.64824120603015,4.124835470160608L185.17587939698493,-0.5310366081126747L190.7035175879397,-4.895689885585257L196.23115577889445,-8.733266753038444L201.75879396984922,-11.895841885130379L207.28643216080397,-14.25404674914551L212.81407035175883,-15.778475594883142L218.3417085427136,-16.447883825732834L223.86934673366835,-16.317342826762168L229.39698492462313,-15.46505910984837L234.9246231155779,-14.00154160832755L240.45226130653265,-12.02620673592245L245.97989949748742,-9.666199447224137L251.5075376884422,-7.0403363515256325L257.03517587939706,-4.261837632647336L262.5628140703517,-1.424029688300896L268.09045226130655,1.3863984534626665L273.61809045226124,4.087028793105789L279.1457286432161,6.6273576320221L284.6733668341708,8.958606885577415L290.2010050251256,11.028667550058131L295.72864321608046,12.826623839399161L301.25628140703515,14.313325232418915L306.78391959799,15.479402074780289L312.3115577889447,16.311932808006958L317.83919597989956,16.78914830360171L323.3668341708542,16.91931424484485L328.89447236180905,16.696745030253197L334.42211055276374,16.13948371961664L339.9497487437186,15.267419071220123L345.47738693467346,14.130463796907923L351.0050251256281,12.774775415711353L356.53266331658295,11.270753580375658L362.06030150753764,9.686159401567268L367.5879396984925,8.09936919644417L373.1155778894472,6.5765894687988515L378.64321608040206,5.162708273102538L384.1708542713567,3.889877916646379L389.69849246231155,2.7713023588829713L395.2261306532664,1.7982101026752266L400.7537688442211,0.9465807588539729L406.28140703517596,0.18413665066788634L411.8090452261306,-0.5213317222997672L417.33668341708545,-1.2003889614077718L422.86432160804014,-1.8667784730824046L428.391959798995,-2.5263606120035886L433.9195979899497,-3.159311386069851L439.44723618090455,-3.7366085587782365L444.9748743718592,-4.227582600407393L450.50251256281405,-4.5914425616987655L456.0301507537689,-4.790769126887035L461.5577889447236,-4.8119199350629795L467.08542713567846,-4.642961059044514L472.6130653266331,-4.298427182122869L478.14070351758795,-3.803898854179081L483.66834170854264,-3.2060618352883368L489.1959798994975,-2.5560593646666883L494.7236180904522,-1.907553625444464L500.25125628140705,-1.3125125025758453L505.7788944723619,-0.8098839974052321L511.30653266331655,-0.42428902528587953L516.8341708542714,-0.1647105345786959L522.3618090452261,-0.02219086764962773L527.8894472361809,0.026493994124808233L533.4170854271356,0.014710871365821186L538.9447236180905,-0.018719156702455338L544.4723618090452,-0.035225295813224505L550,0"></path>
		</g>
		<g class="tdots"><circle cx="-481.5596547481934" cy="-0.5003671194155561" r="5" style="fill: rgba(0, 200, 0, 0.5);"></circle><circle cx="-475.6051331616428" cy="-14.75981404186231" r="5" style="fill: rgba(0, 200, 0, 0.5);"></circle><circle cx="-414.1491849924952" cy="21.15367716749677" r="5" style="fill: rgba(0, 200, 0, 0.5);"></circle><circle cx="-397.24763145970337" cy="12.908818952445715" r="5" style="fill: rgba(0, 200, 0, 0.5);"></circle><circle cx="-345.34905926982003" cy="19.490069439304357" r="5" style="fill: rgba(0, 200, 0, 0.5);"></circle><circle cx="-317.1306136910328" cy="-4.913291251157322" r="5" style="fill: rgba(0, 200, 0, 0.5);"></circle><circle cx="-172.98421292702676" cy="-51.054052035749095" r="5" style="fill: rgba(0, 200, 0, 0.5);"></circle><circle cx="-170.2419259194829" cy="14.58864680734272" r="5" style="fill: rgba(0, 200, 0, 0.5);"></circle><circle cx="-138.86924205974242" cy="14.477488501418398" r="5" style="fill: rgba(0, 200, 0, 0.5);"></circle><circle cx="-26.95992226921433" cy="67.21694013113192" r="5" style="fill: rgba(0, 200, 0, 0.5);"></circle><circle cx="16.74977162081417" cy="-30.819989093699178" r="5" style="fill: rgba(0, 200, 0, 0.5);"></circle><circle cx="46.82046391712058" cy="-106.55392006108117" r="5" style="fill: rgba(0, 200, 0, 0.5);"></circle><circle cx="113.84775628248782" cy="-18.3782441447172" r="5" style="fill: rgba(0, 200, 0, 0.5);"></circle><circle cx="208.19997390480216" cy="-16.611615454352147" r="5" style="fill: rgba(0, 200, 0, 0.5);"></circle><circle cx="284.26771276601596" cy="10.845218059906479" r="5" style="fill: rgba(0, 200, 0, 0.5);"></circle><circle cx="294.50259635018267" cy="19.533826337407593" r="5" style="fill: rgba(0, 200, 0, 0.5);"></circle><circle cx="421.1351219981536" cy="-2.3507246006569313" r="5" style="fill: rgba(0, 200, 0, 0.5);"></circle><circle cx="464.57053031518177" cy="-5.607052715152215" r="5" style="fill: rgba(0, 200, 0, 0.5);"></circle><circle cx="530.0226528435012" cy="-0.10744109045318787" r="5" style="fill: rgba(0, 200, 0, 0.5);"></circle><circle cx="534.7197666212912" cy="0.572671002639701" r="5" style="fill: rgba(0, 200, 0, 0.5);"></circle></g>
	</g>
	<g transform="translate(18 325) scale(1.7)">
		<path transform="translate(477,143) scale(0.15)" fill="#ffffff99" fill-rule="evenodd" clip-rule="evenodd" d="M48.854 0C21.839 0 0 22 0 49.217c0 21.756 13.993 40.172 33.405 46.69 2.427.49 3.316-1.059 3.316-2.362 0-1.141-.08-5.052-.08-9.127-13.59 2.934-16.42-5.867-16.42-5.867-2.184-5.704-5.42-7.17-5.42-7.17-4.448-3.015.324-3.015.324-3.015 4.934.326 7.523 5.052 7.523 5.052 4.367 7.496 11.404 5.378 14.235 4.074.404-3.178 1.699-5.378 3.074-6.6-10.839-1.141-22.243-5.378-22.243-24.283 0-5.378 1.94-9.778 5.014-13.2-.485-1.222-2.184-6.275.486-13.038 0 0 4.125-1.304 13.426 5.052a46.97 46.97 0 0 1 12.214-1.63c4.125 0 8.33.571 12.213 1.63 9.302-6.356 13.427-5.052 13.427-5.052 2.67 6.763.97 11.816.485 13.038 3.155 3.422 5.015 7.822 5.015 13.2 0 18.905-11.404 23.06-22.324 24.283 1.78 1.548 3.316 4.481 3.316 9.126 0 6.6-.08 11.897-.08 13.526 0 1.304.89 2.853 3.316 2.364 19.412-6.52 33.405-24.935 33.405-46.691C97.707 22 75.788 0 48.854 0z"/>
		<text x="500" y="155" style="fill:#ffffff99; font: 13px Comic Sans MS;">https://wilsonkkyip.github.io</text>
	</g>
</svg>

